<svg width="24" height="24" viewBox="0 0 24 24" fill="none" xmlns="http://www.w3.org/2000/svg">
<path d="M1.5 16.875H3C3.09946 16.875 3.19484 16.8355 3.26516 16.7652C3.33549 16.6948 3.375 16.5995 3.375 16.5C3.375 16.4005 3.33549 16.3052 3.26516 16.2348C3.19484 16.1645 3.09946 16.125 3 16.125H1.875V10.875H19.5C19.5995 10.875 19.6948 10.8355 19.7652 10.7652C19.8355 10.6948 19.875 10.5995 19.875 10.5C19.875 10.4005 19.8355 10.3052 19.7652 10.2348C19.6948 10.1645 19.5995 10.125 19.5 10.125H19.125V9.375H19.5C19.5493 9.37503 19.598 9.36535 19.6435 9.34651C19.6891 9.32768 19.7304 9.30006 19.7652 9.26523C19.8001 9.2304 19.8277 9.18905 19.8465 9.14354C19.8653 9.09803 19.875 9.04925 19.875 9V3C19.875 2.95075 19.8653 2.90197 19.8465 2.85646C19.8277 2.81095 19.8001 2.7696 19.7652 2.73477C19.7304 2.69994 19.6891 2.67232 19.6435 2.65349C19.598 2.63465 19.5493 2.62497 19.5 2.625H1.5C1.45075 2.62497 1.40197 2.63465 1.35646 2.65349C1.31095 2.67232 1.2696 2.69994 1.23477 2.73477C1.19994 2.7696 1.17232 2.81095 1.15349 2.85646C1.13465 2.90197 1.12497 2.95075 1.125 3V9C1.12497 9.04925 1.13465 9.09803 1.15349 9.14354C1.17232 9.18905 1.19994 9.2304 1.23477 9.26523C1.2696 9.30006 1.31095 9.32768 1.35646 9.34651C1.40197 9.36535 1.45075 9.37503 1.5 9.375H1.875V10.125H1.5C1.45075 10.125 1.40197 10.1347 1.35646 10.1535C1.31095 10.1723 1.2696 10.1999 1.23477 10.2348C1.19994 10.2696 1.17232 10.3109 1.15349 10.3565C1.13465 10.402 1.12497 10.4507 1.125 10.5V16.5C1.12497 16.5493 1.13465 16.598 1.15349 16.6435C1.17232 16.6891 1.19994 16.7304 1.23477 16.7652C1.2696 16.8001 1.31095 16.8277 1.35646 16.8465C1.40197 16.8653 1.45075 16.875 1.5 16.875ZM1.875 3.375H19.125V8.625H1.875V3.375ZM2.625 9.375H18.375V10.125H2.625V9.375ZM6 16.875H13.5C13.5995 16.875 13.6948 16.8355 13.7652 16.7652C13.8355 16.6948 13.875 16.5995 13.875 16.5C13.875 16.4005 13.8355 16.3052 13.7652 16.2348C13.6948 16.1645 13.5995 16.125 13.5 16.125H6C5.90054 16.125 5.80516 16.1645 5.73484 16.2348C5.66451 16.3052 5.625 16.4005 5.625 16.5C5.625 16.5995 5.66451 16.6948 5.73484 16.7652C5.80516 16.8355 5.90054 16.875 6 16.875Z" fill="#0C1015"/>
<path d="M4.5 7.125C4.7225 7.125 4.94001 7.05902 5.12502 6.9354C5.31002 6.81179 5.45422 6.63609 5.53937 6.43052C5.62451 6.22495 5.64679 5.99875 5.60338 5.78052C5.55998 5.5623 5.45283 5.36184 5.2955 5.20451C5.13816 5.04717 4.93771 4.94003 4.71948 4.89662C4.50125 4.85321 4.27505 4.87549 4.06948 4.96064C3.86391 5.04578 3.68821 5.18998 3.5646 5.37498C3.44098 5.55999 3.375 5.7775 3.375 6C3.37533 6.29827 3.49396 6.58423 3.70487 6.79514C3.91577 7.00604 4.20173 7.12468 4.5 7.125ZM4.5 5.625C4.57417 5.625 4.64667 5.64699 4.70834 5.6882C4.77001 5.72941 4.81807 5.78797 4.84646 5.85649C4.87484 5.92502 4.88226 6.00042 4.8678 6.07316C4.85333 6.1459 4.81761 6.21272 4.76517 6.26517C4.71272 6.31761 4.6459 6.35333 4.57316 6.3678C4.50042 6.38226 4.42502 6.37484 4.35649 6.34646C4.28797 6.31807 4.22941 6.27001 4.1882 6.20834C4.14699 6.14667 4.125 6.07417 4.125 6C4.12507 5.90057 4.1646 5.80522 4.23491 5.73491C4.30522 5.6646 4.40057 5.62507 4.5 5.625ZM4.5 12.375C4.2775 12.375 4.05999 12.441 3.87498 12.5646C3.68998 12.6882 3.54578 12.8639 3.46064 13.0695C3.37549 13.275 3.35321 13.5012 3.39662 13.7195C3.44003 13.9377 3.54717 14.1382 3.70451 14.2955C3.86184 14.4528 4.0623 14.56 4.28052 14.6034C4.49875 14.6468 4.72495 14.6245 4.93052 14.5394C5.13609 14.4542 5.31179 14.31 5.4354 14.125C5.55902 13.94 5.625 13.7225 5.625 13.5C5.62468 13.2017 5.50604 12.9158 5.29514 12.7049C5.08423 12.494 4.79827 12.3753 4.5 12.375ZM4.5 13.875C4.42583 13.875 4.35333 13.853 4.29166 13.8118C4.22999 13.7706 4.18193 13.712 4.15355 13.6435C4.12516 13.575 4.11774 13.4996 4.13221 13.4268C4.14668 13.3541 4.18239 13.2873 4.23484 13.2348C4.28728 13.1824 4.3541 13.1467 4.42684 13.1322C4.49958 13.1177 4.57498 13.1252 4.64351 13.1535C4.71203 13.1819 4.7706 13.23 4.8118 13.2917C4.85301 13.3533 4.875 13.4258 4.875 13.5C4.87493 13.5994 4.8354 13.6948 4.76509 13.7651C4.69478 13.8354 4.59944 13.8749 4.5 13.875ZM6.75 6.375H17.25C17.3495 6.375 17.4448 6.33549 17.5152 6.26517C17.5855 6.19484 17.625 6.09946 17.625 6C17.625 5.90054 17.5855 5.80516 17.5152 5.73484C17.4448 5.66451 17.3495 5.625 17.25 5.625H6.75C6.65054 5.625 6.55516 5.66451 6.48484 5.73484C6.41451 5.80516 6.375 5.90054 6.375 6C6.375 6.09946 6.41451 6.19484 6.48484 6.26517C6.55516 6.33549 6.65054 6.375 6.75 6.375ZM13.5 13.125H6.75C6.65054 13.125 6.55516 13.1645 6.48484 13.2348C6.41451 13.3052 6.375 13.4005 6.375 13.5C6.375 13.5995 6.41451 13.6948 6.48484 13.7652C6.55516 13.8355 6.65054 13.875 6.75 13.875H13.5C13.5995 13.875 13.6948 13.8355 13.7652 13.7652C13.8355 13.6948 13.875 13.5995 13.875 13.5C13.875 13.4005 13.8355 13.3052 13.7652 13.2348C13.6948 13.1645 13.5995 13.125 13.5 13.125ZM18.75 11.625C17.6564 11.6263 16.6079 12.0613 15.8346 12.8346C15.0613 13.6079 14.6263 14.6564 14.625 15.75C14.625 18.9258 18.3962 21.2252 18.5574 21.3215C18.6155 21.3565 18.6821 21.375 18.75 21.375C18.8179 21.375 18.8845 21.3565 18.9426 21.3215C19.1038 21.2252 22.875 18.9258 22.875 15.75C22.8737 14.6564 22.4387 13.6079 21.6654 12.8346C20.8921 12.0613 19.8436 11.6263 18.75 11.625ZM18.75 20.5536C18.0066 20.0555 15.375 18.1234 15.375 15.75C15.375 14.8549 15.7306 13.9965 16.3635 13.3635C16.9965 12.7306 17.8549 12.375 18.75 12.375C19.6451 12.375 20.5035 12.7306 21.1365 13.3635C21.7694 13.9965 22.125 14.8549 22.125 15.75C22.125 18.1234 19.4934 20.0555 18.75 20.5536Z" fill="#0C1015"/>
<path d="M18.75 13.875C18.3792 13.875 18.0166 13.985 17.7083 14.191C17.4 14.397 17.1596 14.6899 17.0177 15.0325C16.8758 15.3751 16.8387 15.7521 16.911 16.1158C16.9834 16.4795 17.162 16.8136 17.4242 17.0758C17.6864 17.338 18.0205 17.5166 18.3842 17.589C18.7479 17.6613 19.1249 17.6242 19.4675 17.4823C19.8101 17.3404 20.103 17.1 20.309 16.7917C20.515 16.4834 20.625 16.1208 20.625 15.75C20.6245 15.2529 20.4268 14.7763 20.0752 14.4248C19.7237 14.0732 19.2471 13.8755 18.75 13.875ZM18.75 16.875C18.5275 16.875 18.31 16.809 18.125 16.6854C17.94 16.5618 17.7958 16.3861 17.7106 16.1805C17.6255 15.975 17.6032 15.7488 17.6466 15.5305C17.69 15.3123 17.7972 15.1118 17.9545 14.9545C18.1118 14.7972 18.3123 14.69 18.5305 14.6466C18.7488 14.6032 18.975 14.6255 19.1805 14.7106C19.3861 14.7958 19.5618 14.94 19.6854 15.125C19.809 15.31 19.875 15.5275 19.875 15.75C19.8747 16.0483 19.756 16.3342 19.5451 16.5451C19.3342 16.756 19.0483 16.8747 18.75 16.875Z" fill="#0C1015"/>
<path d="M4.5 16.875C4.70711 16.875 4.875 16.7071 4.875 16.5C4.875 16.2929 4.70711 16.125 4.5 16.125C4.29289 16.125 4.125 16.2929 4.125 16.5C4.125 16.7071 4.29289 16.875 4.5 16.875Z" fill="#0C1015"/>
</svg>
