<svg width="24" height="24" viewBox="0 0 24 24" fill="none" xmlns="http://www.w3.org/2000/svg">
<path d="M12.72 19.5H4.5C4.20163 19.5 3.91548 19.3815 3.7045 19.1705C3.49353 18.9595 3.375 18.6734 3.375 18.375V2.625C3.375 2.32663 3.49353 2.04048 3.7045 1.8295C3.91548 1.61853 4.20163 1.5 4.5 1.5H16.5C16.7984 1.5 17.0845 1.61853 17.2955 1.8295C17.5065 2.04048 17.625 2.32663 17.625 2.625V14.25H16.875V2.625C16.875 2.52554 16.8355 2.43016 16.7652 2.35984C16.6948 2.28951 16.5995 2.25 16.5 2.25H4.5C4.40054 2.25 4.30516 2.28951 4.23484 2.35984C4.16451 2.43016 4.125 2.52554 4.125 2.625V18.375C4.125 18.4745 4.16451 18.5698 4.23484 18.6402C4.30516 18.7105 4.40054 18.75 4.5 18.75H12.72V19.5ZM12.75 10.875H10.5V11.625H12.75V10.875ZM15.375 8.625H10.5V9.375H15.375V8.625ZM12.75 15.375H10.5V16.125H12.75V15.375ZM15.375 13.125H10.5V13.875H15.375V13.125ZM12.75 6.375H10.5V7.125H12.75V6.375ZM15.375 4.125H10.5V4.875H15.375V4.125ZM21 18.75C21 18.0083 20.7801 17.2833 20.368 16.6666C19.956 16.0499 19.3703 15.5693 18.6851 15.2855C17.9998 15.0016 17.2458 14.9274 16.5184 15.0721C15.791 15.2167 15.1228 15.5739 14.5983 16.0983C14.0739 16.6228 13.7167 17.291 13.5721 18.0184C13.4274 18.7458 13.5016 19.4998 13.7855 20.1851C14.0693 20.8703 14.5499 21.456 15.1666 21.868C15.7833 22.2801 16.5083 22.5 17.25 22.5C18.2446 22.5 19.1984 22.1049 19.9016 21.4016C20.6049 20.6984 21 19.7446 21 18.75ZM20.25 18.75C20.25 19.3433 20.0741 19.9234 19.7444 20.4167C19.4148 20.9101 18.9462 21.2946 18.3981 21.5216C17.8499 21.7487 17.2467 21.8081 16.6647 21.6924C16.0828 21.5766 15.5482 21.2909 15.1287 20.8713C14.7091 20.4518 14.4234 19.9172 14.3076 19.3353C14.1919 18.7533 14.2513 18.1501 14.4784 17.6019C14.7054 17.0538 15.0899 16.5852 15.5833 16.2556C16.0766 15.9259 16.6567 15.75 17.25 15.75C18.0456 15.75 18.8087 16.0661 19.3713 16.6287C19.9339 17.1913 20.25 17.9544 20.25 18.75ZM16.5 16.875H15.75V18H16.5V16.875ZM18.75 16.875H18V18H18.75V16.875ZM18.75 16.875H18V18H18.75V16.875ZM16.5 16.875H15.75V18H16.5V16.875ZM19.5 19.125H18.75C18.75 20.0325 18 20.4375 17.25 20.4375C16.5 20.4375 15.75 20.0325 15.75 19.125H15C14.9921 19.4236 15.0537 19.72 15.1799 19.9907C15.3062 20.2614 15.4936 20.4991 15.7275 20.685C16.1641 21.0189 16.7004 21.1959 17.25 21.1875C18.375 21.1875 19.5 20.4788 19.5 19.125ZM7.41375 11.49L9.28875 9.24L8.71125 8.76L7.05375 10.7513L6.20625 10.1888L5.79375 10.8112L6.91875 11.5612C6.97914 11.6035 7.05127 11.6258 7.125 11.625C7.18009 11.6251 7.23453 11.613 7.28443 11.5897C7.33434 11.5664 7.37849 11.5323 7.41375 11.49ZM7.41375 6.99L9.28875 4.74L8.71125 4.26L7.05375 6.25125L6.20625 5.68875L5.79375 6.31125L6.91875 7.06125C6.97914 7.10355 7.05127 7.12584 7.125 7.125C7.18009 7.12509 7.23453 7.11304 7.28443 7.08971C7.33434 7.06637 7.37849 7.03233 7.41375 6.99ZM7.41375 15.99L9.28875 13.74L8.71125 13.26L7.05375 15.2512L6.20625 14.6887L5.79375 15.3113L6.91875 16.0613C6.97914 16.1035 7.05127 16.1258 7.125 16.125C7.18009 16.1251 7.23453 16.113 7.28443 16.0897C7.33434 16.0664 7.37849 16.0323 7.41375 15.99Z" fill="black"/>
</svg>
