<svg width="20" height="20" viewBox="0 0 20 20" fill="none" xmlns="http://www.w3.org/2000/svg">
<path d="M2.51709 19.6093V15.1451C2.51709 14.5703 2.67565 14.0065 2.97534 13.516C3.27502 13.0254 3.70421 12.627 4.21568 12.3646L7.34154 10.7611C7.78293 10.5346 8.27187 10.4165 8.76795 10.4165H11.2319C11.7279 10.4165 12.2169 10.5346 12.6583 10.7611L15.7841 12.3646C16.2956 12.627 16.7248 13.0254 17.0244 13.516C17.3241 14.0066 17.4827 14.5703 17.4827 15.1451V19.6093C17.4827 19.7129 17.4415 19.8123 17.3683 19.8855C17.295 19.9588 17.1957 20 17.0921 20H2.90771C2.80411 20 2.70476 19.9588 2.6315 19.8855C2.55824 19.8123 2.51709 19.7129 2.51709 19.6093Z" fill="#F96263"/>
<path d="M11.9626 11.5899L9.99992 11.4876L8.01562 11.5899V8.9507H11.9626V11.5899Z" fill="#F9BEAC"/>
<path d="M8.01562 9.56562C8.09435 9.65291 8.18049 9.73321 8.27309 9.80562L9.30727 10.6137C9.57968 10.8266 9.91546 10.9422 10.2612 10.9422H10.3586C10.7043 10.9422 11.0401 10.8266 11.3125 10.6137L11.9626 10.1057V8.9507H8.01562V9.56562Z" fill="#E58A7B"/>
<path d="M7.99974 9.05836C7.75655 8.86833 7.55986 8.6254 7.42458 8.34801C7.2893 8.07061 7.21899 7.76605 7.21899 7.45742V4.62942C7.21899 4.29921 7.35017 3.98253 7.58366 3.74904C7.81715 3.51555 8.13383 3.38438 8.46403 3.38438H11.6091C11.9393 3.38438 12.256 3.51555 12.4894 3.74904C12.7229 3.98253 12.8541 4.29921 12.8541 4.62942V7.45742C12.8541 7.76605 12.7838 8.07062 12.6485 8.34801C12.5132 8.62541 12.3165 8.86834 12.0733 9.05836L11.0391 9.86645C10.7667 10.0793 10.431 10.195 10.0852 10.195H9.98782C9.64211 10.195 9.30633 10.0793 9.03392 9.86645L7.99974 9.05836Z" fill="#F9BEAC"/>
<path d="M12.8541 6.67762V4.9248C12.9666 4.9248 13.0778 4.94958 13.1798 4.99739C13.2817 5.04521 13.3718 5.11487 13.4438 5.20145C13.5157 5.28802 13.5678 5.38938 13.5961 5.49832C13.6245 5.60726 13.6285 5.72112 13.608 5.8318L13.5598 6.09109C13.5291 6.25587 13.4418 6.40473 13.3129 6.51185C13.184 6.61898 13.0217 6.67762 12.8541 6.67762ZM7.21898 6.67762V4.9248C7.1064 4.9248 6.99521 4.94958 6.89329 4.99739C6.79137 5.04521 6.70122 5.11487 6.62926 5.20145C6.5573 5.28802 6.50528 5.38938 6.47691 5.49832C6.44853 5.60726 6.44449 5.72112 6.46507 5.8318L6.51328 6.09109C6.54392 6.25587 6.63127 6.40473 6.76016 6.51185C6.88906 6.61898 7.05138 6.67762 7.21898 6.67762ZM10.037 8.88691C10.0252 8.88691 10.0135 8.88676 10.0016 8.88652C9.83392 8.88232 9.6684 8.8474 9.51328 8.78352C9.49643 8.77687 9.48106 8.76694 9.46808 8.75431C9.4551 8.74168 9.44476 8.72659 9.43766 8.70992C9.43056 8.69326 9.42684 8.67535 9.42672 8.65724C9.4266 8.63913 9.43008 8.62117 9.43696 8.60441C9.44384 8.58766 9.45398 8.57243 9.46679 8.55963C9.4796 8.54682 9.49483 8.53669 9.51159 8.52982C9.52835 8.52296 9.54631 8.51949 9.56443 8.51962C9.58254 8.51975 9.60045 8.52348 9.6171 8.53059C9.74146 8.58179 9.87415 8.60977 10.0086 8.61313C10.1618 8.61656 10.3141 8.58845 10.456 8.53055C10.4727 8.52353 10.4905 8.51989 10.5086 8.51982C10.5267 8.51976 10.5446 8.52327 10.5613 8.53017C10.578 8.53707 10.5931 8.5472 10.6059 8.56C10.6187 8.57279 10.6288 8.58798 10.6356 8.6047C10.6425 8.62142 10.6459 8.63933 10.6458 8.6574C10.6457 8.67546 10.642 8.69333 10.6349 8.70996C10.6279 8.72659 10.6176 8.74166 10.6047 8.75429C10.5918 8.76692 10.5765 8.77687 10.5597 8.78355C10.3939 8.85186 10.2163 8.88698 10.037 8.88691H10.037ZM10.5014 7.23098V7.35359C10.5014 7.4769 10.4525 7.59515 10.3653 7.68234C10.2781 7.76953 10.1598 7.81852 10.0365 7.81852C9.91321 7.81852 9.79496 7.76953 9.70777 7.68234C9.62058 7.59515 9.5716 7.4769 9.5716 7.35359V7.23098C9.5716 7.1999 9.58394 7.17009 9.60592 7.14811C9.6279 7.12614 9.6577 7.11379 9.68878 7.11379H10.3843C10.4153 7.11379 10.4451 7.12614 10.4671 7.14811C10.4891 7.17009 10.5014 7.1999 10.5014 7.23098Z" fill="#E58A7B"/>
<path d="M11.7415 5.95102C11.7237 5.95102 11.7061 5.94754 11.6897 5.94078C11.5478 5.88279 11.3955 5.85468 11.2422 5.85821C11.1078 5.86156 10.9751 5.88953 10.8508 5.94074C10.8341 5.94756 10.8164 5.95104 10.7984 5.95098C10.7804 5.95093 10.7627 5.94733 10.7461 5.94041C10.7295 5.93348 10.7145 5.92336 10.7018 5.91063C10.6892 5.89789 10.6792 5.88278 10.6724 5.86617C10.6586 5.83263 10.6587 5.79499 10.6727 5.76153C10.6867 5.72808 10.7134 5.70154 10.7469 5.68778C11.0821 5.54995 11.4581 5.54995 11.7933 5.68778C11.8227 5.69977 11.8469 5.72158 11.862 5.74949C11.877 5.7774 11.8819 5.80966 11.8758 5.84077C11.8696 5.87187 11.8529 5.89988 11.8284 5.92C11.8039 5.94012 11.7732 5.9511 11.7415 5.95106V5.95102ZM11.2702 6.66551C11.2339 6.66551 11.1991 6.65111 11.1735 6.62547C11.1479 6.59983 11.1334 6.56505 11.1334 6.52879V6.22887C11.1334 6.19261 11.1479 6.15784 11.1735 6.1322C11.1991 6.10656 11.2339 6.09215 11.2702 6.09215C11.3064 6.09215 11.3412 6.10656 11.3668 6.1322C11.3925 6.15784 11.4069 6.19261 11.4069 6.22887V6.52879C11.4069 6.56505 11.3925 6.59983 11.3668 6.62547C11.3412 6.65111 11.3064 6.66551 11.2702 6.66551ZM9.20114 5.95106C9.18337 5.95103 9.16577 5.94753 9.14935 5.94074C9.00746 5.8828 8.85515 5.8547 8.70192 5.85821C8.56748 5.86156 8.43479 5.88953 8.31044 5.94074C8.29383 5.94756 8.27604 5.95104 8.25808 5.95098C8.24013 5.95093 8.22236 5.94733 8.2058 5.94041C8.18923 5.93348 8.17419 5.92336 8.16154 5.91063C8.14888 5.89789 8.13886 5.88278 8.13204 5.86617C8.11827 5.83263 8.11839 5.79499 8.13238 5.76153C8.14636 5.72808 8.17307 5.70154 8.20661 5.68778C8.5418 5.54995 8.91783 5.54995 9.25302 5.68778C9.28236 5.69977 9.30663 5.72158 9.32167 5.74949C9.3367 5.7774 9.34158 5.80966 9.33545 5.84077C9.32932 5.87187 9.31257 5.89988 9.28807 5.92C9.26357 5.94012 9.23284 5.9511 9.20114 5.95106ZM8.72985 6.66551C8.69359 6.66551 8.65882 6.65111 8.63318 6.62547C8.60754 6.59983 8.59313 6.56505 8.59313 6.52879V6.22887C8.59313 6.19261 8.60754 6.15784 8.63318 6.1322C8.65882 6.10656 8.69359 6.09215 8.72985 6.09215C8.76611 6.09215 8.80089 6.10656 8.82653 6.1322C8.85217 6.15784 8.86657 6.19261 8.86657 6.22887V6.52879C8.86657 6.56505 8.85217 6.59983 8.82653 6.62547C8.80089 6.65111 8.76611 6.66551 8.72985 6.66551ZM12.8541 6.30719H12.6978C12.5942 6.30719 12.4949 6.26603 12.4216 6.19278C12.3484 6.11952 12.3072 6.02017 12.3072 5.91657V4.15875H12.8541V6.30719ZM7.21899 6.30719H7.37524C7.47884 6.30719 7.5782 6.26603 7.65146 6.19278C7.72471 6.11952 7.76587 6.02017 7.76587 5.91657V3.88531H7.21899V6.30719Z" fill="#343C4A"/>
<path d="M10.0367 1.39606C10.3844 1.39606 10.6664 1.11413 10.6664 0.766368C10.6664 0.418601 10.3844 0.136681 10.0367 0.136681C9.6889 0.136681 9.40698 0.418601 9.40698 0.766368C9.40698 1.11413 9.6889 1.39606 10.0367 1.39606Z" fill="#F96263"/>
<path d="M9.33597 1.04844H10.7371C11.315 1.04845 11.8692 1.27802 12.2779 1.68665C12.6865 2.09528 12.9161 2.6495 12.9161 3.22738V4.35621H7.15698V3.22738C7.15699 2.64949 7.38657 2.09527 7.79521 1.68663C8.20384 1.278 8.75807 1.04844 9.33597 1.04844Z" fill="#57AAFE"/>
<path d="M11.9762 5.24024L10.8297 4.99344C10.307 4.88093 9.76633 4.88093 9.24363 4.99344L8.09714 5.2402C7.93654 5.27476 7.76894 5.25307 7.62243 5.17875C7.47593 5.10443 7.35943 4.982 7.29245 4.832L7.14163 4.49414C7.12202 4.45033 7.11186 4.40288 7.11182 4.35488C7.11177 4.30688 7.12185 4.25941 7.14138 4.21557C7.16092 4.17172 7.18947 4.13249 7.22519 4.10042C7.2609 4.06835 7.30298 4.04417 7.34867 4.02946C8.23766 3.74393 9.16645 3.60174 10.1001 3.60825C11.016 3.61489 12.129 3.88485 12.702 4.04235C12.7496 4.05536 12.7937 4.0785 12.8315 4.11017C12.8692 4.14184 12.8997 4.18131 12.9208 4.22585C12.9419 4.2704 12.9531 4.31898 12.9536 4.36826C12.9542 4.41754 12.9441 4.46636 12.924 4.51137L12.7809 4.832C12.7139 4.98201 12.5974 5.10444 12.4509 5.17876C12.3044 5.25308 12.1368 5.27481 11.9762 5.24024Z" fill="#F96263"/>
<path d="M10.3498 16.1926H9.65015C9.58799 16.1926 9.52837 16.1679 9.48442 16.1239C9.44046 16.08 9.41577 16.0204 9.41577 15.9582V11.5898L9.99995 11.4876L10.5842 11.5899V15.9582C10.5842 16.0204 10.5595 16.08 10.5155 16.1239C10.4716 16.1679 10.412 16.1926 10.3498 16.1926Z" fill="#D34342"/>
<path d="M11.9867 10.1431L9.99993 11.4876L10.9253 12.4812C10.9863 12.5466 11.0614 12.5973 11.145 12.6292C11.2286 12.6611 11.3184 12.6735 11.4075 12.6653C11.4966 12.6572 11.5826 12.6287 11.659 12.5821C11.7354 12.5356 11.8001 12.4721 11.8482 12.3967L12.4176 10.6447L11.9867 10.1431ZM8.01317 10.1431L9.99993 11.4876L9.07458 12.4812C9.0136 12.5466 8.93844 12.5973 8.85485 12.6292C8.77127 12.6611 8.68149 12.6735 8.59239 12.6653C8.50329 12.6572 8.41724 12.6287 8.34084 12.5821C8.26445 12.5356 8.19973 12.4721 8.15165 12.3967L7.58228 10.6447L8.01317 10.1431Z" fill="#57AAFE"/>
<path d="M2.51709 18.0232H5.00459V20H2.90771C2.80411 20 2.70476 19.9588 2.6315 19.8855C2.55824 19.8123 2.51709 19.7129 2.51709 19.6093V18.0232Z" fill="#F9BEAC"/>
<path d="M2.51709 17.5743H5.00459V18.472H2.51709V17.5743Z" fill="#57AAFE"/>
<path d="M10 13.164C10.0755 13.164 10.1367 13.1028 10.1367 13.0273C10.1367 12.9518 10.0755 12.8906 10 12.8906C9.92449 12.8906 9.86328 12.9518 9.86328 13.0273C9.86328 13.1028 9.92449 13.164 10 13.164Z" fill="#343C4A"/>
<path d="M10 14.2578C10.0755 14.2578 10.1367 14.1966 10.1367 14.1211C10.1367 14.0455 10.0755 13.9843 10 13.9843C9.92449 13.9843 9.86328 14.0455 9.86328 14.1211C9.86328 14.1966 9.92449 14.2578 10 14.2578Z" fill="#343C4A"/>
<path d="M10 15.3515C10.0755 15.3515 10.1367 15.2903 10.1367 15.2148C10.1367 15.1393 10.0755 15.0781 10 15.0781C9.92449 15.0781 9.86328 15.1393 9.86328 15.2148C9.86328 15.2903 9.92449 15.3515 10 15.3515Z" fill="#343C4A"/>
<path d="M5.00464 20C4.96838 20 4.9336 19.9856 4.90796 19.9599C4.88232 19.9343 4.86792 19.8995 4.86792 19.8632V17.0049C4.86792 16.9686 4.88232 16.9338 4.90796 16.9082C4.9336 16.8826 4.96838 16.8682 5.00464 16.8682C5.0409 16.8682 5.07567 16.8826 5.10131 16.9082C5.12695 16.9338 5.14136 16.9686 5.14136 17.0049V19.8633C5.14136 19.8995 5.12695 19.9343 5.10131 19.96C5.07567 19.9856 5.0409 20 5.00464 20V20Z" fill="#D34342"/>
<path d="M12.3552 14.8849H19.3164V19.414C19.3164 19.491 19.3012 19.5672 19.2718 19.6382C19.2423 19.7093 19.1991 19.7739 19.1447 19.8283C19.0903 19.8827 19.0257 19.9259 18.9546 19.9554C18.8836 19.9848 18.8074 20 18.7304 20H12.9412C12.7858 20 12.6367 19.9382 12.5268 19.8283C12.417 19.7185 12.3552 19.5694 12.3552 19.414V14.8849Z" fill="#FFD597"/>
<path d="M12.3552 14.8849H19.3164V15.4318H12.3552V14.8849Z" fill="#FFBC5B"/>
<path d="M19.5898 13.598H12.0818C11.9308 13.598 11.8083 13.7204 11.8083 13.8714V14.6114C11.8083 14.7625 11.9308 14.8849 12.0818 14.8849H19.5898C19.7408 14.8849 19.8632 14.7625 19.8632 14.6114V13.8714C19.8632 13.7204 19.7408 13.598 19.5898 13.598Z" fill="#FFD597"/>
<path d="M15.1548 14.8849H16.5167V20H15.1548V14.8849Z" fill="#E88F37"/>
<path d="M15.1548 14.8849H16.5167V15.4318H15.1548V14.8849Z" fill="#E57F23"/>
</svg>
