<svg width="24" height="24" viewBox="0 0 24 24" fill="none" xmlns="http://www.w3.org/2000/svg">
<path d="M0 4.00017H24V19.9998H0V4.00017Z" fill="#F0F0F0"/>
<path d="M0 4.00017H24V9.33337H0V4.00017Z" fill="#D80027"/>
<path d="M0 14.6666H24V19.9998H0V14.6666Z" fill="black"/>
<path d="M15 11.0761H12.75C12.75 10.6619 12.4142 10.3261 12 10.3261C11.5858 10.3261 11.25 10.6619 11.25 11.0761H9C9 11.4903 9.3608 11.8261 9.77498 11.8261H9.75C9.75 12.2403 10.0858 12.5761 10.5 12.5761C10.5 12.9903 10.8358 13.3261 11.25 13.3261H12.75C13.1642 13.3261 13.5 12.9903 13.5 12.5761C13.9142 12.5761 14.25 12.2403 14.25 11.8261H14.225C14.6392 11.8261 15 11.4903 15 11.0761Z" fill="#FF9811"/>
</svg>
