<svg width="24" height="24" viewBox="0 0 24 24" fill="none" xmlns="http://www.w3.org/2000/svg">
<g clip-path="url(#clip0_186_2098)">
<path d="M23.2 1.2H0.800049V22.8H23.2V1.2Z" fill="#00247D"/>
<path d="M12 9.8364L2.1632 0H0V2.1636L9.8368 12L0 21.8364V24H2.1632L12 14.1636L21.8368 24H24V21.8364L14.1632 12L24 2.1636V0H21.8368L12 9.8364Z" fill="white"/>
<path d="M14.4001 1.2H9.6001V22.8H14.4001V1.2Z" fill="white"/>
<path d="M23.2008 8.4012H0.800781V15.6012H23.2008V8.4012Z" fill="white"/>
<path d="M23.2008 9.6012H0.800781V14.4012H23.2008V9.6012Z" fill="#CF142B"/>
<path d="M13.5999 1.2H10.3999V22.8H13.5999V1.2Z" fill="#CF142B"/>
<path d="M0 0V24H24V0H0ZM23.2 22.8H0.8V1.2H23.2V22.8Z" fill="black"/>
</g>
<defs>
<clipPath id="clip0_186_2098">
<rect width="24" height="24" fill="white"/>
</clipPath>
</defs>
</svg>
