<svg width="20" height="20" viewBox="0 0 20 20" fill="none" xmlns="http://www.w3.org/2000/svg">
<g clip-path="url(#clip0_191_2180)">
<path d="M3.66553 2.25313H5.79053V5.84688H3.66553V2.25313Z" fill="#F0BB73"/>
<path d="M3.37183 1.42188H6.08433V2.25312H3.37183V1.42188Z" fill="#DD9B54"/>
<path d="M1.11865 18.8187H18.8812V20H1.11865V18.8187Z" fill="#D3D3D3"/>
<path d="M2.84058 9.825H17.1593V20H2.84058V9.825Z" fill="#F9F9F9"/>
<path d="M2.84058 9.34375H17.1593V9.825H2.84058V9.34375Z" fill="#D3D3D3"/>
<path d="M9.46874 0.215641L1.35624 8.02502C0.859367 8.50314 1.19687 9.34377 1.88749 9.34377H18.1125C18.8031 9.34377 19.1437 8.50314 18.6437 8.02502L10.5312 0.215641C10.3889 0.0774273 10.1984 0.000114441 9.99999 0.000114441C9.80161 0.000114441 9.61105 0.0774273 9.46874 0.215641Z" fill="#DA4765"/>
<path d="M9.85615 20H4.43115V16.0188C4.43115 14.5219 5.64678 13.3063 7.14365 13.3063C8.64053 13.3063 9.85615 14.5219 9.85615 16.0188V20Z" fill="#D3D3D3"/>
<path d="M13.4562 12.6312H15.5687V14.7437H13.4562V12.6312ZM13.4562 15.0844H15.5687V17.1969H13.4562V15.0844ZM11 12.6312H13.1125V14.7437H11V12.6312ZM11 15.0844H13.1125V17.1969H11V15.0844Z" fill="#59CBEF"/>
<path d="M10.0001 7.45C9.11572 7.45 8.39697 6.73125 8.39697 5.84688C8.39697 4.9625 9.11572 4.24375 10.0001 4.24375C10.8845 4.24375 11.6032 4.9625 11.6032 5.84688C11.6032 6.73125 10.8845 7.45 10.0001 7.45Z" fill="#D21E6A"/>
</g>
<defs>
<clipPath id="clip0_191_2180">
<rect width="20" height="20" fill="white"/>
</clipPath>
</defs>
</svg>
