<svg width="89" height="25" viewBox="0 0 89 25" fill="none" xmlns="http://www.w3.org/2000/svg">
<rect y="2.5" width="20" height="20" rx="10" fill="#F9ECF0"/>
<path fill-rule="evenodd" clip-rule="evenodd" d="M10.0001 15.2411L9.21801 17.5622C8.90086 18.5019 7.79306 18.8253 7.1377 18.1142C6.99868 18.1499 6.85361 18.1542 6.71276 18.1268C6.57192 18.0994 6.43876 18.0409 6.32273 17.9556C6.2067 17.8702 6.11065 17.76 6.04138 17.6329C5.97212 17.5057 5.93134 17.3647 5.92195 17.2198C5.05246 16.8085 5.01215 15.6416 5.79876 15.0461L7.73796 13.5767L5.31586 13.5422C4.33439 13.5277 3.68933 12.5603 4.15386 11.71C4.07756 11.587 4.02885 11.4486 4.01119 11.3045C3.99353 11.1605 4.00734 11.0142 4.05165 10.8761C4.09596 10.738 4.16968 10.6115 4.26762 10.5054C4.36555 10.3994 4.48529 10.3164 4.61839 10.2623C4.73621 9.29767 5.81981 8.89902 6.6221 9.47182L8.60162 10.885L7.88489 8.5421C7.59686 7.59559 8.2997 6.66859 9.24802 6.85726C9.33988 6.74567 9.45485 6.65589 9.58478 6.59428C9.71472 6.53267 9.85644 6.50073 9.99992 6.50073C10.1434 6.50073 10.2851 6.53267 10.4151 6.59428C10.545 6.65589 10.66 6.74567 10.7518 6.85726C11.6992 6.66859 12.4025 7.59559 12.1149 8.5421L11.3982 10.885L13.3777 9.47137C14.18 8.89857 15.2632 9.29721 15.3814 10.2623C15.5146 10.3163 15.6344 10.3992 15.7324 10.5052C15.8303 10.6112 15.9041 10.7377 15.9484 10.8758C15.9927 11.0139 16.0065 11.1601 15.9888 11.3042C15.9711 11.4483 15.9224 11.5866 15.846 11.7095C16.3105 12.5603 15.6668 13.5272 14.684 13.5417L12.2623 13.5767L14.2015 15.0456C14.9872 15.6406 14.9483 16.808 14.0779 17.2194C14.0685 17.3643 14.0277 17.5053 13.9585 17.6324C13.8892 17.7596 13.7931 17.8697 13.6771 17.9551C13.5611 18.0405 13.4279 18.0989 13.2871 18.1263C13.1462 18.1537 13.0012 18.1494 12.8621 18.1137C12.2077 18.8244 11.099 18.5019 10.7818 17.5613L10.0001 15.2411Z" fill="#D21E6A"/>
<path fill-rule="evenodd" clip-rule="evenodd" d="M10.0002 15.2408V6.5H10.0428C10.1791 6.50594 10.3126 6.54068 10.4348 6.602C10.557 6.66331 10.6652 6.74984 10.7524 6.85602C11.6859 6.67461 12.4053 7.58891 12.1142 8.54086L11.3974 10.8838L13.3769 9.47013C14.1792 8.89733 15.2619 9.29597 15.3807 10.2611C15.5138 10.315 15.6336 10.3979 15.7316 10.5039C15.8295 10.6099 15.9033 10.7365 15.9476 10.8745C15.9919 11.0126 16.0057 11.1589 15.988 11.3029C15.9703 11.447 15.9216 11.5854 15.8452 11.7083C16.3102 12.5591 15.666 13.526 14.6832 13.5405L12.2615 13.5754L14.2007 15.0444C14.9864 15.6394 14.947 16.8068 14.0771 17.2181C14.0677 17.363 14.0269 17.504 13.9577 17.6312C13.8884 17.7583 13.7923 17.8685 13.6763 17.9539C13.5603 18.0392 13.4271 18.0977 13.2863 18.1251C13.1454 18.1525 13.0004 18.1482 12.8613 18.1125C12.2069 18.8236 11.0982 18.5007 10.781 17.5601L10.0002 15.2408Z" fill="#E7629A"/>
<path d="M10.9037 13.7317C11.4031 13.2261 11.4031 12.4062 10.9037 11.9006C10.4042 11.3949 9.59445 11.3949 9.095 11.9006C8.59556 12.4062 8.59556 13.2261 9.095 13.7317C9.59445 14.2374 10.4042 14.2374 10.9037 13.7317Z" fill="#FFDA44"/>
<path fill-rule="evenodd" clip-rule="evenodd" d="M9.99951 11.521C10.3346 11.5273 10.6539 11.6666 10.8886 11.9088C11.1234 12.1509 11.2549 12.4767 11.2549 12.816C11.2549 13.1554 11.1234 13.4811 10.8886 13.7233C10.6539 13.9655 10.3346 14.1047 9.99951 14.1111V11.521Z" fill="#FFB655"/>
<path d="M31.0156 6.20312L30.5371 5.70508C30.3743 5.56185 30.2214 5.44466 30.0781 5.35352C29.9414 5.26237 29.8047 5.19076 29.668 5.13867C29.5312 5.08008 29.3913 5.04102 29.248 5.02148C29.1113 5.00195 28.9583 4.99219 28.7891 4.99219C28.7305 4.99219 28.6947 4.9987 28.6816 5.01172C28.5059 5.01172 28.3659 5.01172 28.2617 5.01172C28.1641 5.01172 28.0892 5.01172 28.0371 5.01172C27.985 5.01172 27.9492 5.01497 27.9297 5.02148C27.9167 5.02148 27.9102 5.02148 27.9102 5.02148H27.1582C27.0475 5.05404 26.9336 5.07357 26.8164 5.08008C26.6992 5.08659 26.5853 5.08984 26.4746 5.08984C26.2272 5.08984 26.0384 5.0931 25.9082 5.09961C25.7845 5.10612 25.6836 5.13216 25.6055 5.17773C25.5339 5.20378 25.4915 5.23958 25.4785 5.28516C25.4655 5.32422 25.459 5.36003 25.459 5.39258C25.459 5.5293 25.4395 5.63021 25.4004 5.69531C25.3678 5.75391 25.2962 5.81901 25.1855 5.89062C25.166 5.90365 25.1497 5.9362 25.1367 5.98828C25.1302 6.04036 25.1204 6.09896 25.1074 6.16406C25.1009 6.22917 25.0944 6.29427 25.0879 6.35938C25.0879 6.42448 25.0879 6.47656 25.0879 6.51562C25.0879 6.66536 25.1107 6.80859 25.1562 6.94531C25.2018 7.08203 25.2246 7.23503 25.2246 7.4043L25.1367 8.01953C25.1367 8.16927 25.1693 8.31901 25.2344 8.46875C25.306 8.61849 25.3418 8.78125 25.3418 8.95703L25.1855 10.4121C25.1855 10.4707 25.2116 10.5391 25.2637 10.6172C25.3158 10.6888 25.3581 10.7441 25.3906 10.7832C25.5924 10.8092 25.7975 10.8483 26.0059 10.9004C26.2142 10.946 26.4193 10.9688 26.6211 10.9688C26.6667 10.9688 26.7057 10.9655 26.7383 10.959C26.7773 10.946 26.8132 10.9036 26.8457 10.832C26.9173 10.8255 27.002 10.819 27.0996 10.8125C27.2038 10.806 27.321 10.8027 27.4512 10.8027C27.627 10.8027 27.8158 10.8027 28.0176 10.8027C28.2194 10.7962 28.418 10.7865 28.6133 10.7734C28.8086 10.7539 28.9876 10.7279 29.1504 10.6953C29.3132 10.6562 29.4401 10.6009 29.5312 10.5293C29.6224 10.4707 29.6908 10.3861 29.7363 10.2754C29.7884 10.1647 29.8275 10.0475 29.8535 9.92383C29.8796 9.79362 29.9023 9.66341 29.9219 9.5332C29.9414 9.40299 29.9674 9.28581 30 9.18164C30.0391 9.07096 30.0911 8.98307 30.1562 8.91797C30.2279 8.84635 30.3288 8.81055 30.459 8.81055C30.498 8.81055 30.5339 8.81706 30.5664 8.83008C30.6055 8.8431 30.6413 8.88542 30.6738 8.95703V9.36719C30.6738 9.67969 30.6413 9.97917 30.5762 10.2656C30.5436 10.4935 30.5111 10.7018 30.4785 10.8906C30.4525 11.0729 30.4395 11.2585 30.4395 11.4473C30.4395 11.61 30.4622 11.7695 30.5078 11.9258C30.5599 12.0755 30.612 12.2253 30.6641 12.375C30.7227 12.5182 30.7747 12.6647 30.8203 12.8145C30.8724 12.9642 30.8984 13.1172 30.8984 13.2734C30.8984 13.3711 30.8952 13.446 30.8887 13.498C30.8887 13.5436 30.8757 13.5729 30.8496 13.5859C30.8171 13.638 30.7943 13.6771 30.7812 13.7031C30.7682 13.7292 30.7324 13.7422 30.6738 13.7422C30.5762 13.7422 30.5013 13.7064 30.4492 13.6348C30.4036 13.5632 30.3451 13.4915 30.2734 13.4199L30.1367 13.1172C30.0651 12.9609 29.9967 12.8112 29.9316 12.668C29.8665 12.5247 29.7884 12.3913 29.6973 12.2676C29.6126 12.1374 29.5117 12.0169 29.3945 11.9062C29.2839 11.7891 29.1471 11.6849 28.9844 11.5938H28.5449C28.3171 11.5938 28.0827 11.5905 27.8418 11.584C27.6009 11.571 27.3926 11.5482 27.2168 11.5156L26.6211 11.4082C26.4518 11.4082 26.2663 11.4375 26.0645 11.4961C25.8691 11.5547 25.6836 11.5872 25.5078 11.5938C25.4492 11.6654 25.3809 11.7565 25.3027 11.8672C25.2246 11.9714 25.1855 12.0853 25.1855 12.209C25.2897 12.6908 25.3776 13.166 25.4492 13.6348C25.5208 14.097 25.5566 14.5625 25.5566 15.0312C25.5566 15.2526 25.5501 15.4023 25.5371 15.4805C25.5306 15.5521 25.5208 15.6107 25.5078 15.6562C25.5599 15.8125 25.6315 15.9525 25.7227 16.0762C25.8203 16.1934 25.931 16.3008 26.0547 16.3984C26.1784 16.4896 26.3086 16.5742 26.4453 16.6523C26.582 16.7305 26.7155 16.8021 26.8457 16.8672C26.8522 16.8672 26.8717 16.8867 26.9043 16.9258C26.9434 16.9648 26.9629 16.9909 26.9629 17.0039C26.9889 17.0169 27.0475 17.0299 27.1387 17.043C27.2298 17.0495 27.2884 17.0527 27.3145 17.0527C27.3665 17.0527 27.4089 17.0527 27.4414 17.0527C27.4805 17.0527 27.5228 17.0462 27.5684 17.0332C27.6204 17.0267 27.6628 17.0234 27.6953 17.0234C27.7344 17.0234 27.7767 17.0234 27.8223 17.0234C27.8678 17.0234 27.9167 17.0234 27.9688 17.0234C28.0208 17.0234 28.0664 17.0267 28.1055 17.0332C28.151 17.0462 28.1934 17.0527 28.2324 17.0527C28.278 17.0527 28.3203 17.0527 28.3594 17.0527C28.3919 17.0853 28.431 17.1178 28.4766 17.1504C28.5286 17.1829 28.5742 17.222 28.6133 17.2676C28.6589 17.3132 28.6947 17.362 28.7207 17.4141C28.7533 17.4661 28.7695 17.5247 28.7695 17.5898C28.7695 17.6615 28.7533 17.7363 28.7207 17.8145C28.6882 17.8861 28.6426 17.9544 28.584 18.0195C28.5319 18.0911 28.4733 18.1465 28.4082 18.1855C28.3431 18.2311 28.278 18.2539 28.2129 18.2539H28.1934C28.1217 18.2669 28.0404 18.2734 27.9492 18.2734C27.8646 18.2799 27.7897 18.2832 27.7246 18.2832C27.6335 18.2832 27.5456 18.2799 27.4609 18.2734C27.3828 18.2734 27.2786 18.2669 27.1484 18.2539L26.9629 18.2051C26.8522 18.1465 26.7285 18.0944 26.5918 18.0488C26.4551 18.0033 26.3118 17.9642 26.1621 17.9316C26.0189 17.8991 25.8724 17.8763 25.7227 17.8633C25.5794 17.8438 25.446 17.834 25.3223 17.834C25.1855 17.834 25.0684 17.8405 24.9707 17.8535C24.873 17.86 24.7428 17.8861 24.5801 17.9316C24.4303 17.9577 24.2741 17.9772 24.1113 17.9902C23.9551 17.9967 23.8021 18 23.6523 18C23.4831 18 23.3236 17.9967 23.1738 17.9902C23.0306 17.9772 22.8743 17.9577 22.7051 17.9316C22.627 17.9577 22.5521 18 22.4805 18.0586C22.4154 18.1172 22.3275 18.1595 22.2168 18.1855C22.1712 18.1725 22.1289 18.1595 22.0898 18.1465C22.0573 18.14 22.0182 18.1367 21.9727 18.1367C21.9401 18.1497 21.8913 18.1562 21.8262 18.1562H21.4551C21.3053 18.1042 21.1816 18.0521 21.084 18C20.9928 17.9479 20.9245 17.847 20.8789 17.6973C20.8789 17.4889 20.9863 17.3132 21.2012 17.1699C21.3574 17.1569 21.5592 17.1146 21.8066 17.043C22.0605 16.9714 22.3047 16.877 22.5391 16.7598C22.7734 16.6426 22.9753 16.5026 23.1445 16.3398C23.3203 16.1771 23.4082 15.998 23.4082 15.8027C23.4082 15.4577 23.3984 15.1615 23.3789 14.9141C23.3659 14.6602 23.3464 14.416 23.3203 14.1816C23.3008 13.9473 23.2812 13.7031 23.2617 13.4492C23.2487 13.1888 23.2422 12.8763 23.2422 12.5117C23.2422 12.401 23.252 12.2936 23.2715 12.1895C23.2975 12.0788 23.3203 11.9714 23.3398 11.8672C23.3659 11.7565 23.3887 11.6491 23.4082 11.5449C23.4342 11.4342 23.4473 11.3236 23.4473 11.2129C23.4473 11.1934 23.444 11.1673 23.4375 11.1348C23.4375 11.1022 23.4375 11.0697 23.4375 11.0371C23.4375 10.998 23.4342 10.9655 23.4277 10.9395C23.4277 10.9069 23.4277 10.8906 23.4277 10.8906L23.3105 10.4609V9.70898C23.3105 9.59831 23.2975 9.48763 23.2715 9.37695C23.2454 9.26628 23.2161 9.1556 23.1836 9.04492C23.1576 8.93424 23.1315 8.82682 23.1055 8.72266C23.0859 8.61198 23.0762 8.50456 23.0762 8.40039C23.0762 8.37435 23.0794 8.33203 23.0859 8.27344C23.099 8.20833 23.112 8.16276 23.125 8.13672C23.151 8.00651 23.1706 7.8763 23.1836 7.74609C23.2031 7.60938 23.2129 7.47266 23.2129 7.33594C23.2129 7.20573 23.2064 7.07878 23.1934 6.95508C23.1803 6.82487 23.1576 6.69466 23.125 6.56445C23.125 6.44727 23.0957 6.33333 23.0371 6.22266C22.985 6.10547 22.9134 5.99479 22.8223 5.89062C22.7376 5.78646 22.6432 5.69531 22.5391 5.61719C22.4349 5.53255 22.3372 5.4707 22.2461 5.43164C22.1289 5.38607 21.9694 5.35677 21.7676 5.34375C21.5658 5.33073 21.3639 5.30794 21.1621 5.27539C20.9603 5.23633 20.7845 5.17448 20.6348 5.08984C20.4915 4.9987 20.4199 4.85221 20.4199 4.65039V4.50391C20.5241 4.44531 20.651 4.38672 20.8008 4.32812C20.957 4.26302 21.0905 4.23047 21.2012 4.23047H21.4355C21.5267 4.23047 21.6146 4.24023 21.6992 4.25977C21.7904 4.2793 21.8652 4.32487 21.9238 4.39648C22.0345 4.41602 22.1452 4.43229 22.2559 4.44531C22.3665 4.45833 22.4772 4.46484 22.5879 4.46484C22.6855 4.46484 22.793 4.45833 22.9102 4.44531C23.0273 4.43229 23.1445 4.41602 23.2617 4.39648C23.2943 4.3444 23.3171 4.3151 23.3301 4.30859C23.3496 4.30208 23.3822 4.29883 23.4277 4.29883C23.5645 4.29883 23.6979 4.32487 23.8281 4.37695C23.9583 4.42904 24.1081 4.45508 24.2773 4.45508H24.4922C24.5638 4.45508 24.6387 4.45508 24.7168 4.45508C24.7949 4.44857 24.8796 4.42904 24.9707 4.39648C25.2051 4.43555 25.4622 4.45508 25.7422 4.45508C26.0026 4.45508 26.2663 4.43555 26.5332 4.39648C26.7741 4.31185 27.028 4.26953 27.2949 4.26953C27.5684 4.26953 27.8516 4.25651 28.1445 4.23047C28.2943 4.21745 28.4342 4.20768 28.5645 4.20117C28.7012 4.18815 28.8379 4.18164 28.9746 4.18164C29.0723 4.18164 29.1732 4.18815 29.2773 4.20117C29.3815 4.20768 29.4889 4.21745 29.5996 4.23047C29.6257 4.24349 29.6582 4.26628 29.6973 4.29883C29.7428 4.32487 29.7852 4.35417 29.8242 4.38672C29.8698 4.41927 29.9121 4.44857 29.9512 4.47461C29.9902 4.49414 30.0195 4.50391 30.0391 4.50391C30.0977 4.50391 30.1465 4.49414 30.1855 4.47461C30.2311 4.45508 30.2865 4.42904 30.3516 4.39648C30.4557 4.37044 30.5632 4.35417 30.6738 4.34766C30.7845 4.33464 30.8984 4.32812 31.0156 4.32812C31.2174 4.32812 31.4193 4.35091 31.6211 4.39648C31.6341 4.39648 31.6634 4.41927 31.709 4.46484C31.7611 4.50391 31.8132 4.54948 31.8652 4.60156C31.9238 4.64714 31.9759 4.69271 32.0215 4.73828C32.0671 4.77734 32.0931 4.80013 32.0996 4.80664V6.20312C32.2298 6.52214 32.2949 6.8444 32.2949 7.16992C32.2949 7.24805 32.2917 7.32943 32.2852 7.41406C32.2852 7.49219 32.2721 7.56706 32.2461 7.63867C32.2266 7.71029 32.1908 7.76888 32.1387 7.81445C32.0866 7.86003 32.015 7.88281 31.9238 7.88281C31.8848 7.83724 31.8392 7.7819 31.7871 7.7168C31.735 7.65169 31.6797 7.58659 31.6211 7.52148C31.569 7.44987 31.5169 7.38151 31.4648 7.31641C31.4193 7.2513 31.3802 7.19271 31.3477 7.14062C31.3477 7.1276 31.3346 7.0918 31.3086 7.0332C31.2826 6.9681 31.2533 6.90299 31.2207 6.83789C31.1882 6.76628 31.1556 6.70117 31.123 6.64258C31.097 6.57747 31.0775 6.53516 31.0645 6.51562C31.0514 6.5026 31.0384 6.45052 31.0254 6.35938C31.0189 6.26823 31.0156 6.21615 31.0156 6.20312ZM33.252 18.0684C33.2324 18.0684 33.2096 18.0684 33.1836 18.0684C33.1576 18.0684 33.1283 18.0618 33.0957 18.0488H32.8906L32.7734 17.9512V17.4922L32.998 17.1406C33.0566 17.1146 33.125 17.1016 33.2031 17.1016C33.2812 17.0951 33.3236 17.0918 33.3301 17.0918C33.3561 17.0918 33.4147 17.0885 33.5059 17.082C33.6035 17.069 33.6816 17.0495 33.7402 17.0234C33.89 17.056 33.9974 17.0723 34.0625 17.0723C34.1406 17.0137 34.2155 16.9355 34.2871 16.8379C34.3587 16.7402 34.4206 16.6328 34.4727 16.5156C34.5312 16.3984 34.5736 16.2812 34.5996 16.1641C34.6322 16.0469 34.6484 15.9395 34.6484 15.8418V14.7578C34.6484 14.5299 34.6484 14.3086 34.6484 14.0938C34.6549 13.8724 34.668 13.7161 34.6875 13.625C34.668 13.4492 34.6549 13.2767 34.6484 13.1074C34.6419 12.9316 34.6322 12.7559 34.6191 12.5801L34.5508 11.5645C34.5312 11.2585 34.515 10.9525 34.502 10.6465C34.4889 10.3405 34.4824 10.0312 34.4824 9.71875C34.4824 9.6862 34.4857 9.66341 34.4922 9.65039C34.4987 9.63086 34.528 9.60482 34.5801 9.57227C34.554 9.4681 34.5378 9.3737 34.5312 9.28906C34.5312 9.20443 34.5312 9.11328 34.5312 9.01562C34.5312 8.92448 34.5312 8.83333 34.5312 8.74219C34.5378 8.64453 34.554 8.54362 34.5801 8.43945C34.528 8.4069 34.4857 8.35807 34.4531 8.29297C34.4271 8.22786 34.4141 8.13997 34.4141 8.0293C34.4141 7.94466 34.4401 7.8763 34.4922 7.82422C34.5443 7.77214 34.5703 7.69401 34.5703 7.58984C34.5703 7.44661 34.5671 7.29362 34.5605 7.13086C34.554 6.9681 34.528 6.80208 34.4824 6.63281C34.4368 6.40495 34.4141 6.22266 34.4141 6.08594C34.4141 5.94922 34.4076 5.80273 34.3945 5.64648C34.3555 5.58789 34.2871 5.5293 34.1895 5.4707C34.0983 5.41211 33.9974 5.35352 33.8867 5.29492C33.7826 5.22982 33.6816 5.16471 33.584 5.09961C33.4863 5.02799 33.418 4.95312 33.3789 4.875C33.3268 4.77083 33.291 4.70898 33.2715 4.68945C33.2585 4.66341 33.2454 4.63411 33.2324 4.60156C33.2324 4.55599 33.2454 4.49089 33.2715 4.40625C33.2975 4.3151 33.3464 4.26302 33.418 4.25C33.5547 4.21745 33.6947 4.17839 33.8379 4.13281C33.9811 4.08724 34.0885 4.05794 34.1602 4.04492C34.1732 4.04492 34.2057 4.03516 34.2578 4.01562C34.3164 3.98958 34.375 3.96354 34.4336 3.9375C34.4987 3.90495 34.5573 3.87565 34.6094 3.84961C34.668 3.81706 34.7038 3.79102 34.7168 3.77148C34.8405 3.73893 34.9544 3.70312 35.0586 3.66406C35.1693 3.625 35.2767 3.58919 35.3809 3.55664C35.485 3.52409 35.5924 3.49479 35.7031 3.46875C35.8203 3.44271 35.944 3.42643 36.0742 3.41992C36.1393 3.41992 36.1947 3.42318 36.2402 3.42969C36.2858 3.4362 36.3086 3.46224 36.3086 3.50781C36.3346 3.67708 36.3509 3.8431 36.3574 4.00586C36.3704 4.16211 36.377 4.3151 36.377 4.46484C36.377 4.61458 36.3704 4.76758 36.3574 4.92383C36.3509 5.07357 36.3346 5.22005 36.3086 5.36328C36.2565 5.5 36.224 5.64648 36.2109 5.80273C36.1979 5.95898 36.1914 6.11523 36.1914 6.27148L36.2012 6.7793L36.1719 7.45312C36.1979 7.50521 36.2142 7.55729 36.2207 7.60938C36.2337 7.66146 36.2402 7.72982 36.2402 7.81445C36.2402 7.94466 36.237 8.03906 36.2305 8.09766C36.2305 8.15625 36.2207 8.20182 36.2012 8.23438L36.2695 8.85938C36.2435 8.96354 36.2012 9.07096 36.1426 9.18164C36.084 9.28581 36.0384 9.40299 36.0059 9.5332C36.0059 9.60482 36.0221 9.66992 36.0547 9.72852C36.0872 9.7806 36.11 9.85221 36.123 9.94336C36.1491 10.1973 36.1621 10.4414 36.1621 10.6758C36.1686 10.9102 36.1784 11.1543 36.1914 11.4082C36.1589 11.5579 36.1198 11.6914 36.0742 11.8086C36.0352 11.9193 36.0156 12.0332 36.0156 12.1504V12.3066C36.0221 12.4434 36.0319 12.5703 36.0449 12.6875C36.0579 12.7982 36.071 12.9089 36.084 13.0195C36.1035 13.1302 36.1198 13.2474 36.1328 13.3711C36.1458 13.4883 36.1589 13.625 36.1719 13.7812C36.1719 13.9505 36.1621 14.097 36.1426 14.2207C36.1296 14.3444 36.1165 14.4941 36.1035 14.6699C36.097 14.709 36.0872 14.7643 36.0742 14.8359C36.0677 14.9076 36.0579 14.9824 36.0449 15.0605C36.0384 15.1322 36.0319 15.2005 36.0254 15.2656C36.0189 15.3307 36.0156 15.3763 36.0156 15.4023V15.4121C36.0221 15.4447 36.0352 15.5098 36.0547 15.6074C36.0742 15.7051 36.0938 15.806 36.1133 15.9102C36.1328 16.0143 36.1523 16.112 36.1719 16.2031C36.1914 16.2943 36.2012 16.3529 36.2012 16.3789L36.2695 16.5254H36.2891C36.3086 16.5254 36.3216 16.5352 36.3281 16.5547C36.3346 16.5742 36.3444 16.5872 36.3574 16.5938C36.3835 16.6198 36.3997 16.6491 36.4062 16.6816C36.4128 16.7077 36.4258 16.737 36.4453 16.7695C36.4714 16.7956 36.5072 16.8249 36.5527 16.8574C36.6048 16.8835 36.6862 16.9095 36.7969 16.9355C36.9206 17.0137 37.015 17.0527 37.0801 17.0527C37.0996 17.0527 37.1159 17.0527 37.1289 17.0527C37.1419 17.0527 37.1647 17.0462 37.1973 17.0332C37.2493 17.0462 37.3112 17.056 37.3828 17.0625C37.4544 17.069 37.5293 17.082 37.6074 17.1016C37.6855 17.1146 37.7637 17.1374 37.8418 17.1699C37.9199 17.2025 37.9883 17.248 38.0469 17.3066C38.0794 17.3327 38.099 17.3685 38.1055 17.4141C38.112 17.4531 38.1152 17.5085 38.1152 17.5801V17.9121C38.1152 17.9577 38.1087 18 38.0957 18.0391C38.0827 18.0781 38.0566 18.1042 38.0176 18.1172C37.9655 18.1042 37.9102 18.0977 37.8516 18.0977C37.7995 18.0977 37.7474 18.0977 37.6953 18.0977C37.6497 18.0977 37.6009 18.0944 37.5488 18.0879C37.4967 18.0879 37.4316 18.0814 37.3535 18.0684L37.0508 18.0293C37.0378 18.0293 37.0085 18.026 36.9629 18.0195C36.9238 18.0195 36.8783 18.0163 36.8262 18.0098C36.7806 18.0098 36.735 18.0065 36.6895 18C36.6504 18 36.6243 18 36.6113 18L36.1328 17.9707C36.1263 17.9707 36.1198 17.9674 36.1133 17.9609C36.1068 17.9609 36.1003 17.9609 36.0938 17.9609C36.0938 17.9544 36.0905 17.9512 36.084 17.9512C35.9408 17.9577 35.8105 17.9674 35.6934 17.9805C35.5827 17.9935 35.4753 18.0065 35.3711 18.0195C35.2734 18.0391 35.1725 18.0553 35.0684 18.0684C34.9707 18.0879 34.86 18.0977 34.7363 18.0977C34.5866 18.0846 34.4238 18.0684 34.248 18.0488C34.0788 18.0293 33.9193 18.0195 33.7695 18.0195L33.252 18.0684ZM38.7988 12.834C38.89 12.4889 39.0039 12.1602 39.1406 11.8477C39.2773 11.5286 39.4336 11.2031 39.6094 10.8711L39.8828 10.5488L40 10.3438C40.0195 10.3112 40.0423 10.2819 40.0684 10.2559C40.0879 10.2298 40.1074 10.207 40.127 10.1875C40.1465 10.1615 40.166 10.1419 40.1855 10.1289L40.7617 9.71875C40.7943 9.67969 40.8301 9.65365 40.8691 9.64062C40.9082 9.62109 40.944 9.60807 40.9766 9.60156C41.0156 9.58854 41.0547 9.57878 41.0938 9.57227C41.1328 9.55924 41.1686 9.53646 41.2012 9.50391L41.3867 9.31836L41.543 9.25H41.6895L42.2168 9.04492C42.2428 9.0319 42.2786 9.01888 42.3242 9.00586C42.3763 8.99284 42.4284 8.97982 42.4805 8.9668C42.5326 8.95378 42.5814 8.94401 42.627 8.9375C42.6725 8.93099 42.7051 8.92773 42.7246 8.92773H43.7207C43.7793 8.90169 43.8281 8.88867 43.8672 8.88867C43.9128 8.88216 43.9486 8.87891 43.9746 8.87891C44.1634 8.87891 44.3522 8.91146 44.541 8.97656C44.7298 9.03516 44.9186 9.09049 45.1074 9.14258H45.4785C45.4915 9.14258 45.5111 9.1556 45.5371 9.18164C45.5632 9.20117 45.5924 9.22721 45.625 9.25977L45.7324 9.36719C45.8952 9.45833 46.0547 9.54948 46.2109 9.64062C46.3672 9.72526 46.5234 9.81966 46.6797 9.92383C46.8099 10.028 46.9108 10.1452 46.9824 10.2754C47.0605 10.3991 47.1484 10.5228 47.2461 10.6465C47.2591 10.6595 47.2819 10.6921 47.3145 10.7441C47.3535 10.7897 47.3926 10.8418 47.4316 10.9004C47.4707 10.959 47.5065 11.0176 47.5391 11.0762C47.5781 11.1348 47.6042 11.1803 47.6172 11.2129L47.6758 11.3301L48.0566 12.5801C48.0762 12.6191 48.0924 12.6647 48.1055 12.7168C48.1185 12.7689 48.1315 12.821 48.1445 12.873C48.1576 12.9186 48.1673 12.9642 48.1738 13.0098C48.1803 13.0488 48.1836 13.0749 48.1836 13.0879V13.4004L48.125 13.6445V14.3477L47.6172 15.8418C47.487 16.0176 47.3503 16.1999 47.207 16.3887C47.0638 16.571 46.9206 16.7435 46.7773 16.9062C46.7773 16.9128 46.7643 16.929 46.7383 16.9551C46.6992 17.0072 46.6536 17.0625 46.6016 17.1211C46.5495 17.1797 46.4909 17.235 46.4258 17.2871C46.4128 17.3001 46.3737 17.3099 46.3086 17.3164C46.25 17.3229 46.1849 17.3424 46.1133 17.375L45.5273 17.7168C45.5143 17.7168 45.485 17.7233 45.4395 17.7363C45.4004 17.7428 45.3548 17.7526 45.3027 17.7656C45.2572 17.7721 45.2116 17.7786 45.166 17.7852C45.1204 17.7917 45.0879 17.7949 45.0684 17.7949C44.9512 17.821 44.8535 17.8568 44.7754 17.9023C44.7038 17.9479 44.5996 17.9707 44.4629 17.9707L43.4668 18C43.4408 18 43.3854 18 43.3008 18C43.2161 17.9935 43.125 17.9902 43.0273 17.9902C42.9297 17.9837 42.8353 17.9805 42.7441 17.9805C42.653 17.974 42.5846 17.9707 42.5391 17.9707L42.2656 17.9121L41.6406 17.8633L41.543 17.8145L40.5762 17.1406L40.3418 17.0332C40.2246 16.9681 40.127 16.8737 40.0488 16.75C39.9707 16.6198 39.8926 16.4961 39.8145 16.3789C39.7428 16.2487 39.668 16.1315 39.5898 16.0273C39.5182 15.9232 39.4466 15.8255 39.375 15.7344C39.3164 15.6302 39.2513 15.5293 39.1797 15.4316C39.1146 15.334 39.0527 15.2331 38.9941 15.1289C38.9421 15.0247 38.8965 14.9206 38.8574 14.8164C38.8184 14.7057 38.7988 14.5853 38.7988 14.4551L38.7207 13.6934L38.7988 12.834ZM40.8105 14.2109C40.8626 14.2695 40.8984 14.3216 40.918 14.3672C40.944 14.4128 40.9603 14.4551 40.9668 14.4941C40.9798 14.5332 40.9863 14.5755 40.9863 14.6211C40.9928 14.6667 41.0026 14.722 41.0156 14.7871C41.0677 15.002 41.1523 15.2266 41.2695 15.4609C41.3867 15.6953 41.5104 15.8939 41.6406 16.0566L42.0117 16.4082C42.1419 16.571 42.2656 16.7337 42.3828 16.8965C42.5 17.0527 42.6465 17.1667 42.8223 17.2383H43.2129C43.3561 17.2383 43.5091 17.222 43.6719 17.1895C43.8346 17.1504 43.9974 17.1178 44.1602 17.0918C44.2513 17.0918 44.3327 17.0885 44.4043 17.082C44.4759 17.069 44.5638 17.0299 44.668 16.9648L44.7852 16.8379C45.0977 16.6686 45.3678 16.4603 45.5957 16.2129L46.2695 15.1484L46.2402 14.1328C46.2728 14.0807 46.2923 14.0319 46.2988 13.9863C46.3053 13.9408 46.3086 13.8724 46.3086 13.7812C46.3086 13.6706 46.2826 13.5697 46.2305 13.4785C46.1784 13.3874 46.1523 13.2767 46.1523 13.1465L46.2402 12.7754C46.2207 12.6973 46.2012 12.6061 46.1816 12.502C46.1621 12.3978 46.1393 12.2936 46.1133 12.1895C46.0938 12.0788 46.0677 11.9779 46.0352 11.8867C46.0091 11.7891 45.9733 11.7109 45.9277 11.6523L45.4297 11.0762C45.4102 11.0632 45.3841 11.0339 45.3516 10.9883C45.3255 10.9427 45.2962 10.8906 45.2637 10.832C45.2376 10.7734 45.2116 10.7181 45.1855 10.666C45.166 10.6139 45.1562 10.5749 45.1562 10.5488L44.8633 10.3438C44.7461 10.2135 44.6289 10.1029 44.5117 10.0117C44.3945 9.91406 44.2546 9.85221 44.0918 9.82617L43.6133 9.76758C43.444 9.74154 43.2943 9.71224 43.1641 9.67969C43.0339 9.64062 42.8874 9.62109 42.7246 9.62109H42.6562L42.0605 9.97266L41.1133 11.0762C41.0872 11.1478 41.0645 11.2129 41.0449 11.2715C41.0254 11.3301 41.0156 11.3887 41.0156 11.4473L40.9668 11.75L40.8105 12.1504V12.4043C40.8105 12.4954 40.8236 12.5801 40.8496 12.6582C40.8822 12.7363 40.8984 12.8275 40.8984 12.9316C40.8984 12.9837 40.8952 13.026 40.8887 13.0586C40.8822 13.0846 40.8561 13.1139 40.8105 13.1465V14.2109ZM52.1289 16.5449C51.9857 16.3301 51.888 16.125 51.8359 15.9297C51.7839 15.7279 51.7415 15.5293 51.709 15.334C51.6764 15.1387 51.6309 14.9466 51.5723 14.7578C51.5202 14.5625 51.416 14.3639 51.2598 14.1621L51.0645 13.3418V12.9609C51.0645 12.9609 51.0547 12.9447 51.0352 12.9121C51.0156 12.873 50.9896 12.8307 50.957 12.7852C50.931 12.7331 50.9049 12.6842 50.8789 12.6387C50.8529 12.5931 50.8333 12.5605 50.8203 12.541L50.625 12.2871V11.7793C50.625 11.7598 50.612 11.7305 50.5859 11.6914C50.5664 11.6458 50.5404 11.6003 50.5078 11.5547C50.4818 11.5026 50.4557 11.457 50.4297 11.418C50.4036 11.3789 50.3874 11.3529 50.3809 11.3398C50.2897 11.1836 50.2181 11.0078 50.166 10.8125C50.1139 10.6107 50.0521 10.4284 49.9805 10.2656C49.9414 10.181 49.9056 10.1191 49.873 10.0801C49.8405 10.0345 49.7949 10.002 49.7363 9.98242C49.6842 9.95638 49.6126 9.9401 49.5215 9.93359C49.4368 9.92057 49.3197 9.90104 49.1699 9.875C49.0658 9.85547 48.9779 9.82617 48.9062 9.78711C48.8346 9.74154 48.7988 9.67318 48.7988 9.58203C48.7988 9.45182 48.8249 9.33789 48.877 9.24023C48.9355 9.14258 48.9941 9.04818 49.0527 8.95703L49.5605 8.85938H49.7559C49.9447 8.93099 50.1432 8.98633 50.3516 9.02539C50.5599 9.06445 50.7617 9.08398 50.957 9.08398C51.1198 9.08398 51.263 9.0612 51.3867 9.01562C51.5169 8.97005 51.6569 8.94727 51.8066 8.94727C51.8262 8.94727 51.8587 8.95052 51.9043 8.95703C51.9564 8.95703 52.0117 8.96029 52.0703 8.9668C52.1289 8.97331 52.181 8.97982 52.2266 8.98633C52.2721 8.98633 52.3014 8.98958 52.3145 8.99609C52.347 9.02214 52.3828 9.04492 52.4219 9.06445C52.4674 9.07747 52.5098 9.09701 52.5488 9.12305C52.5879 9.14258 52.6204 9.16862 52.6465 9.20117C52.6725 9.22721 52.6855 9.26628 52.6855 9.31836C52.6855 9.38997 52.6693 9.47786 52.6367 9.58203C52.6042 9.67969 52.5586 9.77083 52.5 9.85547C52.4544 9.90755 52.3796 9.95964 52.2754 10.0117C52.1712 10.0573 52.1029 10.1061 52.0703 10.1582V10.3633L52.0898 10.4805C52.0964 10.5586 52.1094 10.6497 52.1289 10.7539C52.1484 10.8581 52.168 10.9655 52.1875 11.0762C52.207 11.1803 52.2266 11.278 52.2461 11.3691C52.2721 11.4603 52.2949 11.5254 52.3145 11.5645L52.5098 11.7793C52.5684 11.903 52.6139 12.0365 52.6465 12.1797C52.6855 12.3164 52.7148 12.4564 52.7344 12.5996C52.7604 12.7363 52.7832 12.8763 52.8027 13.0195C52.8223 13.1628 52.8483 13.2962 52.8809 13.4199L53.2031 13.9961C53.2227 14.0417 53.2389 14.1068 53.252 14.1914C53.265 14.276 53.2812 14.3607 53.3008 14.4453C53.3268 14.5234 53.3594 14.5918 53.3984 14.6504C53.4375 14.709 53.4928 14.7383 53.5645 14.7383C53.6426 14.7383 53.7077 14.709 53.7598 14.6504C53.8184 14.5918 53.8672 14.5234 53.9062 14.4453C53.9518 14.3672 53.9876 14.2891 54.0137 14.2109C54.0462 14.1328 54.0755 14.0775 54.1016 14.0449C54.1016 14.0319 54.1276 13.9993 54.1797 13.9473C54.2318 13.8887 54.2676 13.8529 54.2871 13.8398C54.3717 13.7357 54.4303 13.6152 54.4629 13.4785C54.4954 13.3353 54.528 13.1953 54.5605 13.0586C54.5931 12.9154 54.6354 12.7786 54.6875 12.6484C54.7461 12.5182 54.8438 12.4141 54.9805 12.3359L55 11.9355C55 11.9095 54.9967 11.8737 54.9902 11.8281C54.9902 11.776 54.9902 11.7305 54.9902 11.6914C54.9902 11.6458 54.987 11.6068 54.9805 11.5742C54.9805 11.5352 54.9805 11.5156 54.9805 11.5156L54.8438 11.2129C54.8177 11.1413 54.8014 11.0664 54.7949 10.9883C54.7949 10.9102 54.7884 10.8255 54.7754 10.7344C54.7624 10.6628 54.7526 10.5944 54.7461 10.5293C54.7396 10.4577 54.7266 10.3861 54.707 10.3145C54.6549 10.1908 54.5801 10.1159 54.4824 10.0898C54.3848 10.0573 54.2839 10.028 54.1797 10.002C54.0755 9.97591 53.9746 9.93685 53.877 9.88477C53.7793 9.82617 53.7012 9.70898 53.6426 9.5332V9.43555C53.6426 9.37695 53.6491 9.31185 53.6621 9.24023C53.6751 9.16211 53.6979 9.11328 53.7305 9.09375C53.8021 9.05469 53.903 9.0319 54.0332 9.02539C54.1634 9.01888 54.2871 9.01562 54.4043 9.01562H54.7266C54.7331 9.01562 54.7591 9.02214 54.8047 9.03516C54.8503 9.04818 54.9023 9.0612 54.9609 9.07422C55.026 9.08724 55.0911 9.10026 55.1562 9.11328C55.2214 9.1263 55.2734 9.13281 55.3125 9.13281L56.0938 8.94727L56.9434 9.08398C57.0085 9.08398 57.0703 9.07422 57.1289 9.05469C57.1875 9.02865 57.2526 9.01562 57.3242 9.01562C57.4935 9.01562 57.6237 9.04818 57.7148 9.11328C57.806 9.17839 57.8516 9.29557 57.8516 9.46484C57.8516 9.64062 57.7962 9.76107 57.6855 9.82617C57.5749 9.89128 57.4414 9.93685 57.2852 9.96289C57.1354 9.98242 56.9824 10.002 56.8262 10.0215C56.6699 10.0345 56.5495 10.0801 56.4648 10.1582V10.2949C56.4648 10.3665 56.4746 10.4251 56.4941 10.4707C56.5202 10.5098 56.5462 10.5488 56.5723 10.5879C56.6048 10.627 56.6341 10.6693 56.6602 10.7148C56.6862 10.7539 56.7057 10.8125 56.7188 10.8906V11.5156C56.7253 11.5417 56.7513 11.6361 56.7969 11.7988C56.8424 11.9551 56.8945 12.1439 56.9531 12.3652C57.0182 12.5866 57.0866 12.8242 57.1582 13.0781C57.2363 13.3255 57.3047 13.5566 57.3633 13.7715C57.4284 13.9863 57.4805 14.1654 57.5195 14.3086C57.5651 14.4518 57.5911 14.5267 57.5977 14.5332C57.6432 14.5788 57.6758 14.6048 57.6953 14.6113C57.7148 14.6178 57.7376 14.6211 57.7637 14.6211C57.8092 14.6211 57.8483 14.6178 57.8809 14.6113C57.9134 14.6048 57.9557 14.5788 58.0078 14.5332C58.0078 14.5267 58.0111 14.5104 58.0176 14.4844C58.0306 14.4583 58.0436 14.4323 58.0566 14.4062C58.1022 14.2695 58.1608 14.1393 58.2324 14.0156C58.3105 13.8854 58.3887 13.7585 58.4668 13.6348C58.5449 13.5046 58.6198 13.3776 58.6914 13.2539C58.763 13.1302 58.8216 13 58.8672 12.8633C58.8737 12.8568 58.877 12.8372 58.877 12.8047C58.8835 12.7721 58.89 12.7396 58.8965 12.707C58.903 12.668 58.9062 12.6354 58.9062 12.6094C58.9128 12.5768 58.916 12.554 58.916 12.541C58.9746 12.3783 59.0299 12.2448 59.082 12.1406C59.1406 12.0365 59.1862 11.916 59.2188 11.7793L59.2676 11.3398C59.3132 11.2617 59.362 11.1868 59.4141 11.1152C59.4727 11.0436 59.5247 10.972 59.5703 10.9004C59.6224 10.8223 59.6647 10.7441 59.6973 10.666C59.7298 10.5879 59.7461 10.5098 59.7461 10.4316V10.3438C59.7331 10.194 59.6875 10.0833 59.6094 10.0117C59.5312 9.9401 59.4401 9.88802 59.3359 9.85547C59.2383 9.81641 59.1374 9.78385 59.0332 9.75781C58.9355 9.73177 58.8639 9.6862 58.8184 9.62109L58.7598 9.39648C58.7598 9.2793 58.8053 9.19141 58.8965 9.13281L58.9355 9.08398C58.9421 9.05143 58.9648 9.02865 59.0039 9.01562C59.043 9.0026 59.1374 8.99609 59.2871 8.99609C59.3457 8.99609 59.3913 8.99609 59.4238 8.99609C59.4629 8.99609 59.4987 8.99935 59.5312 9.00586C59.5703 9.00586 59.6094 9.00911 59.6484 9.01562C59.694 9.01562 59.7526 9.01888 59.8242 9.02539C60.0391 9.02539 60.2181 9.01888 60.3613 9.00586C60.5046 8.98633 60.6413 8.97005 60.7715 8.95703H60.8105C60.8431 8.95703 60.9017 8.96354 60.9863 8.97656C61.0775 8.98958 61.1296 8.99609 61.1426 8.99609L61.6699 8.97656C61.722 8.97656 61.7708 8.98307 61.8164 8.99609C61.862 9.0026 61.8913 9.01237 61.9043 9.02539C61.9303 9.05794 61.9596 9.08073 61.9922 9.09375C62.0247 9.10026 62.0475 9.12305 62.0605 9.16211V9.2793C62.0605 9.40951 62.0443 9.50716 62.0117 9.57227C61.9792 9.63737 61.9499 9.6862 61.9238 9.71875C61.8717 9.77083 61.7904 9.81641 61.6797 9.85547C61.5755 9.89453 61.4616 9.93685 61.3379 9.98242C61.2142 10.028 61.097 10.0833 60.9863 10.1484C60.8757 10.207 60.7943 10.2786 60.7422 10.3633C60.612 10.5586 60.5013 10.7474 60.4102 10.9297C60.3255 11.1055 60.2441 11.2845 60.166 11.4668C60.0944 11.6426 60.0195 11.8216 59.9414 12.0039C59.8633 12.1797 59.7689 12.3652 59.6582 12.5605C59.6061 12.6712 59.5508 12.7786 59.4922 12.8828C59.4336 12.9805 59.3783 13.0814 59.3262 13.1855C59.2806 13.2897 59.2415 13.4004 59.209 13.5176C59.1829 13.6348 59.1699 13.7617 59.1699 13.8984L59.0137 14.084C59.0137 14.123 59.0072 14.1751 58.9941 14.2402C58.9811 14.3053 58.9648 14.3737 58.9453 14.4453C58.9258 14.5169 58.8997 14.5853 58.8672 14.6504C58.8411 14.709 58.8118 14.7513 58.7793 14.7773L58.6426 15.1289L58.3203 15.8223C58.2552 15.9525 58.2064 16.0632 58.1738 16.1543C58.1478 16.2454 58.1185 16.3333 58.0859 16.418C58.0534 16.5026 58.0143 16.5905 57.9688 16.6816C57.9232 16.7728 57.8548 16.8802 57.7637 17.0039C57.6986 17.1081 57.653 17.209 57.627 17.3066C57.6074 17.4043 57.5814 17.4922 57.5488 17.5703C57.5228 17.6419 57.474 17.7005 57.4023 17.7461C57.3372 17.7917 57.2266 17.8145 57.0703 17.8145C56.9466 17.8145 56.8522 17.8047 56.7871 17.7852C56.7285 17.7656 56.6797 17.7363 56.6406 17.6973C56.6081 17.6582 56.5755 17.6094 56.543 17.5508C56.5104 17.4857 56.4616 17.4108 56.3965 17.3262C56.4095 17.2741 56.416 17.2285 56.416 17.1895C56.416 17.1439 56.416 17.0983 56.416 17.0527C56.416 16.903 56.3997 16.7598 56.3672 16.623C56.3346 16.4863 56.2956 16.3529 56.25 16.2227C56.2044 16.0924 56.1621 15.9622 56.123 15.832C56.084 15.6953 56.0579 15.5521 56.0449 15.4023L55.9766 14.6699C55.9635 14.6048 55.931 14.5039 55.8789 14.3672C55.8268 14.224 55.765 14.0807 55.6934 13.9375C55.6283 13.7943 55.5599 13.6706 55.4883 13.5664C55.4167 13.4557 55.3548 13.4004 55.3027 13.4004C55.2246 13.4004 55.153 13.4232 55.0879 13.4688C55.0293 13.5078 54.9935 13.5469 54.9805 13.5859C54.9674 13.6055 54.9414 13.6576 54.9023 13.7422C54.8633 13.8268 54.8438 13.8822 54.8438 13.9082C54.7721 14.2077 54.6777 14.4714 54.5605 14.6992C54.4499 14.9206 54.3294 15.1549 54.1992 15.4023L54.0137 15.666C54.0137 15.679 54.0072 15.7051 53.9941 15.7441C53.9876 15.7832 53.9779 15.8092 53.9648 15.8223C53.9648 15.8288 53.9616 15.8548 53.9551 15.9004C53.9486 15.9395 53.9388 15.985 53.9258 16.0371C53.9193 16.0827 53.9095 16.1283 53.8965 16.1738C53.89 16.2129 53.8835 16.2357 53.877 16.2422C53.877 16.2487 53.8672 16.265 53.8477 16.291C53.8346 16.3171 53.8151 16.3464 53.7891 16.3789C53.7695 16.4049 53.75 16.431 53.7305 16.457C53.7109 16.4766 53.6979 16.4896 53.6914 16.4961C53.6263 16.6458 53.5807 16.8086 53.5547 16.9844C53.5352 17.1602 53.4993 17.3229 53.4473 17.4727C53.4017 17.6224 53.3236 17.7493 53.2129 17.8535C53.1022 17.9512 52.9297 18 52.6953 18C52.5846 18 52.4902 17.9837 52.4121 17.9512C52.3405 17.9186 52.2949 17.8275 52.2754 17.6777L52.1289 16.5449ZM62.3242 13.7227C62.3242 13.6901 62.3307 13.6283 62.3438 13.5371C62.3568 13.4395 62.3698 13.3385 62.3828 13.2344C62.4023 13.1237 62.4154 13.0195 62.4219 12.9219C62.4349 12.8242 62.4414 12.7591 62.4414 12.7266C62.4674 12.4141 62.5358 12.0951 62.6465 11.7695C62.7637 11.444 62.9102 11.1315 63.0859 10.832C63.2617 10.526 63.4635 10.2461 63.6914 9.99219C63.9258 9.73828 64.1797 9.52344 64.4531 9.34766C64.4596 9.33464 64.4922 9.31185 64.5508 9.2793C64.6159 9.24674 64.6842 9.21419 64.7559 9.18164C64.8275 9.14909 64.8958 9.11654 64.9609 9.08398C65.026 9.05143 65.0651 9.02865 65.0781 9.01562C65.1237 8.99609 65.1823 8.96354 65.2539 8.91797C65.332 8.86589 65.4102 8.81706 65.4883 8.77148C65.5664 8.7194 65.6445 8.67383 65.7227 8.63477C65.8008 8.5957 65.8724 8.57617 65.9375 8.57617C65.9961 8.57617 66.0417 8.58268 66.0742 8.5957C66.1133 8.60872 66.1589 8.62826 66.2109 8.6543C66.3216 8.64128 66.4258 8.63151 66.5234 8.625C66.6276 8.61198 66.7318 8.60547 66.8359 8.60547C66.9466 8.60547 67.0508 8.61198 67.1484 8.625C67.2461 8.63151 67.3503 8.64128 67.4609 8.6543C67.4609 8.6543 67.474 8.66081 67.5 8.67383C67.526 8.68034 67.5553 8.6901 67.5879 8.70312C67.6204 8.71615 67.653 8.72917 67.6855 8.74219C67.7181 8.75521 67.7441 8.76497 67.7637 8.77148C67.7832 8.77799 67.8223 8.79753 67.8809 8.83008C67.9395 8.85612 68.0046 8.88867 68.0762 8.92773C68.1478 8.9668 68.2161 9.0026 68.2812 9.03516C68.3464 9.0612 68.3919 9.07747 68.418 9.08398C68.418 9.09049 68.4408 9.10026 68.4863 9.11328C68.5319 9.1263 68.5612 9.13281 68.5742 9.13281L68.9648 9.34766L69.8438 10.1484C69.8698 10.181 69.9089 10.2689 69.9609 10.4121C70.0195 10.5488 70.0749 10.7018 70.127 10.8711C70.1855 11.0339 70.2344 11.1901 70.2734 11.3398C70.319 11.4896 70.3418 11.5872 70.3418 11.6328C70.3418 11.724 70.3158 11.7988 70.2637 11.8574C70.2116 11.9095 70.1497 11.9551 70.0781 11.9941C70.0065 12.0267 69.9284 12.0527 69.8438 12.0723C69.7656 12.0853 69.6973 12.0951 69.6387 12.1016H69.5996C69.5345 12.1081 69.4271 12.1146 69.2773 12.1211C69.1341 12.1276 68.9811 12.1341 68.8184 12.1406C68.6621 12.1406 68.5124 12.1439 68.3691 12.1504C68.2324 12.1504 68.138 12.1504 68.0859 12.1504C68.0143 12.1829 67.9492 12.2025 67.8906 12.209C67.8385 12.2155 67.7832 12.2188 67.7246 12.2188L67.0312 12.1504C66.901 12.1504 66.7643 12.1732 66.6211 12.2188C66.4844 12.2643 66.3509 12.2871 66.2207 12.2871C66.1361 12.2871 66.0514 12.2578 65.9668 12.1992C65.8887 12.1341 65.8008 12.1016 65.7031 12.1016C65.6901 12.1016 65.6543 12.1178 65.5957 12.1504C65.5436 12.1764 65.5046 12.1895 65.4785 12.1895L64.7363 12.1406C64.6322 12.1406 64.5345 12.1602 64.4434 12.1992C64.3522 12.2383 64.248 12.3066 64.1309 12.4043C64.1113 12.5736 64.0983 12.7233 64.0918 12.8535C64.0853 12.9772 64.082 13.1172 64.082 13.2734C64.082 13.4102 64.0885 13.5208 64.1016 13.6055C64.1211 13.6901 64.1471 13.7715 64.1797 13.8496C64.2122 13.9212 64.2513 13.9961 64.2969 14.0742C64.3424 14.1458 64.3945 14.237 64.4531 14.3477L64.5508 14.5332C64.7201 14.9043 64.9382 15.2038 65.2051 15.4316C65.472 15.6595 65.8171 15.8385 66.2402 15.9688C66.2402 16.0013 66.2858 16.0339 66.377 16.0664C66.4746 16.0924 66.582 16.112 66.6992 16.125C66.8359 16.151 66.9922 16.1673 67.168 16.1738C67.3828 16.1738 67.6042 16.1608 67.832 16.1348C68.0599 16.1087 68.2812 16.0664 68.4961 16.0078C68.7109 15.9492 68.9128 15.8711 69.1016 15.7734C69.2969 15.6758 69.4629 15.5553 69.5996 15.4121H69.7559C69.834 15.4121 69.8861 15.4251 69.9121 15.4512C69.9447 15.4707 69.9772 15.5326 70.0098 15.6367C69.9902 15.8255 69.9609 15.9948 69.9219 16.1445C69.8893 16.2878 69.8405 16.418 69.7754 16.5352C69.7168 16.6523 69.6387 16.763 69.541 16.8672C69.4434 16.9648 69.3164 17.0658 69.1602 17.1699C69.1081 17.209 69.0592 17.2383 69.0137 17.2578C68.9681 17.2708 68.9258 17.2839 68.8867 17.2969C68.8477 17.3099 68.8053 17.3294 68.7598 17.3555C68.7207 17.3815 68.6751 17.4271 68.623 17.4922L67.5781 18.0195L67.4609 18L66.7285 18.1172C66.1816 18.1172 65.6901 18.0391 65.2539 17.8828C64.8177 17.7266 64.4271 17.5052 64.082 17.2188C63.7435 16.9258 63.4473 16.5775 63.1934 16.1738C62.946 15.7702 62.7344 15.3242 62.5586 14.8359C62.5 14.6602 62.4642 14.4811 62.4512 14.2988C62.4382 14.11 62.3958 13.918 62.3242 13.7227ZM64.248 11.0566C64.248 11.0892 64.2513 11.138 64.2578 11.2031C64.2708 11.2682 64.2871 11.3333 64.3066 11.3984C64.3262 11.4635 64.349 11.5221 64.375 11.5742C64.401 11.6263 64.4271 11.6556 64.4531 11.6621H64.7559L66.0547 11.457L66.8848 11.5254C67.028 11.5254 67.1549 11.5124 67.2656 11.4863C67.3828 11.4603 67.5098 11.431 67.6465 11.3984C67.7702 11.3789 67.8743 11.3626 67.959 11.3496C68.0501 11.3301 68.1217 11.2975 68.1738 11.252C68.2324 11.2064 68.2747 11.1478 68.3008 11.0762C68.3268 10.998 68.3398 10.8906 68.3398 10.7539C68.3398 10.526 68.278 10.3275 68.1543 10.1582C68.0306 9.98893 67.8743 9.84896 67.6855 9.73828C67.5033 9.62109 67.3014 9.53646 67.0801 9.48438C66.8652 9.42578 66.6634 9.39648 66.4746 9.39648C66.429 9.39648 66.3639 9.40951 66.2793 9.43555C66.1947 9.45508 66.097 9.48438 65.9863 9.52344C65.8822 9.55599 65.7715 9.59505 65.6543 9.64062C65.5436 9.67969 65.4395 9.72526 65.3418 9.77734C65.2507 9.82292 65.1693 9.86849 65.0977 9.91406C65.026 9.95312 64.9805 9.98893 64.9609 10.0215L64.7559 10.4609C64.7168 10.5065 64.668 10.5488 64.6094 10.5879C64.5508 10.627 64.4922 10.6693 64.4336 10.7148C64.3815 10.7604 64.3359 10.8125 64.2969 10.8711C64.2643 10.9232 64.248 10.985 64.248 11.0566ZM71.4746 17.4043C71.4746 17.3522 71.5072 17.3164 71.5723 17.2969C71.6439 17.2708 71.696 17.2415 71.7285 17.209C71.8001 17.1309 71.8815 17.0755 71.9727 17.043C72.0703 17.0104 72.1387 16.9844 72.1777 16.9648C72.2298 16.9323 72.2656 16.8932 72.2852 16.8477C72.3047 16.7956 72.3503 16.7565 72.4219 16.7305L72.6562 16.6523C72.6953 16.6523 72.7279 16.623 72.7539 16.5645C72.7799 16.5059 72.7962 16.4733 72.8027 16.4668C72.7962 16.4342 72.793 16.3789 72.793 16.3008C72.793 16.2227 72.793 16.1478 72.793 16.0762C72.793 15.985 72.793 15.9036 72.793 15.832C72.793 15.7539 72.7962 15.6888 72.8027 15.6367L72.8613 15.3438V13.8398C72.8613 13.8268 72.8646 13.7975 72.8711 13.752C72.8776 13.7064 72.8841 13.6576 72.8906 13.6055C72.8971 13.5534 72.9036 13.5046 72.9102 13.459C72.9167 13.4134 72.9232 13.3841 72.9297 13.3711V13.3027C72.9232 13.2637 72.9167 13.2051 72.9102 13.127C72.9036 13.0423 72.8971 12.9609 72.8906 12.8828C72.8841 12.7982 72.8776 12.7233 72.8711 12.6582C72.8646 12.5931 72.8613 12.554 72.8613 12.541C72.8548 12.5215 72.8483 12.4889 72.8418 12.4434C72.8353 12.3978 72.8288 12.349 72.8223 12.2969C72.8158 12.2448 72.8092 12.196 72.8027 12.1504C72.8027 12.1048 72.8027 12.0723 72.8027 12.0527C72.7832 11.9616 72.7507 11.8737 72.7051 11.7891C72.6595 11.7044 72.6074 11.6263 72.5488 11.5547C72.4902 11.4766 72.4284 11.4017 72.3633 11.3301C72.2982 11.252 72.2363 11.1771 72.1777 11.1055C72.1712 11.1055 72.1484 11.0827 72.1094 11.0371C72.0703 10.985 72.0508 10.9525 72.0508 10.9395L71.4746 10.4023L71.9434 9.92383C71.9564 9.91732 71.9824 9.9043 72.0215 9.88477C72.0671 9.86523 72.1126 9.8457 72.1582 9.82617C72.2103 9.80013 72.2591 9.77734 72.3047 9.75781C72.3568 9.73828 72.3958 9.72526 72.4219 9.71875C72.4349 9.70573 72.4609 9.69596 72.5 9.68945C72.5456 9.67643 72.5911 9.66667 72.6367 9.66016C72.6888 9.65365 72.7344 9.65039 72.7734 9.65039C72.819 9.64388 72.8483 9.64062 72.8613 9.64062C72.985 9.60156 73.0957 9.54948 73.1934 9.48438C73.2975 9.41276 73.3984 9.3444 73.4961 9.2793C73.5938 9.20768 73.6914 9.14583 73.7891 9.09375C73.8932 9.04167 74.0104 9.01562 74.1406 9.01562H74.2969C74.3034 9.02214 74.3392 9.05794 74.4043 9.12305C74.4694 9.18164 74.5182 9.22396 74.5508 9.25C74.5964 9.32161 74.6191 9.41276 74.6191 9.52344C74.6191 9.6276 74.6224 9.73177 74.6289 9.83594C74.6354 9.93359 74.6582 10.0182 74.6973 10.0898C74.7363 10.1615 74.821 10.1973 74.9512 10.1973C74.9707 10.1973 74.9902 10.1973 75.0098 10.1973C75.0358 10.1973 75.0488 10.1908 75.0488 10.1777C75.0749 10.1712 75.1107 10.1582 75.1562 10.1387C75.2018 10.1126 75.2474 10.0833 75.293 10.0508C75.3451 10.0182 75.3906 9.98568 75.4297 9.95312C75.4753 9.92057 75.5078 9.89453 75.5273 9.875L75.9277 9.57227C75.9408 9.55924 75.9831 9.52995 76.0547 9.48438C76.1263 9.43229 76.1751 9.39323 76.2012 9.36719C76.2077 9.36719 76.2337 9.36719 76.2793 9.36719C76.3249 9.36068 76.3704 9.35742 76.416 9.35742C76.4681 9.35091 76.5169 9.3444 76.5625 9.33789C76.6081 9.33138 76.6406 9.32487 76.6602 9.31836C76.6667 9.31836 76.6862 9.31185 76.7188 9.29883C76.7578 9.28581 76.7969 9.27279 76.8359 9.25977C76.8815 9.24674 76.9206 9.23372 76.9531 9.2207C76.9857 9.20768 77.0052 9.20117 77.0117 9.20117H77.1191C77.2689 9.20117 77.3893 9.24674 77.4805 9.33789C77.5781 9.42904 77.666 9.52995 77.7441 9.64062C77.7897 9.69922 77.8158 9.78385 77.8223 9.89453C77.8353 9.9987 77.8581 10.0768 77.8906 10.1289C77.8906 10.1484 77.9004 10.168 77.9199 10.1875L77.959 10.2266C77.959 10.5391 77.9134 10.819 77.8223 11.0664C77.7376 11.3073 77.5911 11.5026 77.3828 11.6523C77.3242 11.6654 77.2559 11.6784 77.1777 11.6914C77.0996 11.6979 77.0345 11.7012 76.9824 11.7012C76.8457 11.7012 76.7448 11.6947 76.6797 11.6816C76.6146 11.6621 76.5658 11.6361 76.5332 11.6035C76.5007 11.571 76.4714 11.5286 76.4453 11.4766C76.4258 11.4245 76.39 11.3626 76.3379 11.291C76.2923 11.2324 76.237 11.1868 76.1719 11.1543C76.1133 11.1152 76.0547 11.0892 75.9961 11.0762C75.9375 11.0566 75.8822 11.0436 75.8301 11.0371C75.7845 11.0306 75.7552 11.0273 75.7422 11.0273L75.3223 10.959L74.9707 11.0566L74.8535 11.2129C74.821 11.2194 74.7754 11.252 74.7168 11.3105C74.6582 11.3626 74.5996 11.4245 74.541 11.4961C74.4889 11.5612 74.4434 11.6328 74.4043 11.7109C74.3652 11.7826 74.3457 11.8411 74.3457 11.8867L74.2969 12.5898L74.3457 12.8633V13.3711C74.3457 13.3841 74.349 13.4232 74.3555 13.4883C74.3685 13.5469 74.3815 13.5924 74.3945 13.625L74.3262 14.5039L74.3945 14.8359C74.3945 14.8815 74.3815 14.9271 74.3555 14.9727C74.3359 15.0182 74.3262 15.0768 74.3262 15.1484L74.3945 15.4805L74.3262 15.8418C74.3262 15.8483 74.3262 15.8581 74.3262 15.8711C74.3262 15.8841 74.3327 15.8906 74.3457 15.8906C74.3522 15.9297 74.3717 15.985 74.4043 16.0566C74.4434 16.1283 74.4824 16.2031 74.5215 16.2812C74.5671 16.3594 74.6061 16.4342 74.6387 16.5059C74.6777 16.571 74.7038 16.6198 74.7168 16.6523C74.7168 16.6589 74.7233 16.6719 74.7363 16.6914C74.7493 16.7109 74.7656 16.7207 74.7852 16.7207C74.8438 16.7533 74.8991 16.7956 74.9512 16.8477C75.0098 16.8997 75.0781 16.9388 75.1562 16.9648C75.2018 16.9844 75.2604 17.0039 75.332 17.0234C75.4036 17.0365 75.4785 17.0527 75.5566 17.0723C75.6413 17.0918 75.7227 17.1146 75.8008 17.1406C75.8854 17.1667 75.9635 17.1992 76.0352 17.2383C76.0742 17.2904 76.11 17.3522 76.1426 17.4238C76.1816 17.4954 76.2012 17.5736 76.2012 17.6582C76.2012 17.7298 76.1882 17.7819 76.1621 17.8145C76.1426 17.847 76.11 17.8796 76.0645 17.9121C76.0254 17.9382 75.9603 17.9512 75.8691 17.9512L75.5566 17.9805C75.446 17.9935 75.3451 18 75.2539 18C75.1693 18 75.0977 18 75.0391 18C74.987 18 74.9284 17.9935 74.8633 17.9805C74.8047 17.9609 74.7396 17.9512 74.668 17.9512C74.4857 17.9512 74.3132 17.974 74.1504 18.0195C73.9876 18.0716 73.8216 18.0977 73.6523 18.0977L73.2129 17.9512L72.5879 18.0977H72.4219L72.2852 18C72.2721 18 72.2363 17.9967 72.1777 17.9902C72.1191 17.9772 72.0345 17.9642 71.9238 17.9512C71.8978 17.9512 71.8717 17.9382 71.8457 17.9121C71.8262 17.9056 71.7936 17.8958 71.748 17.8828C71.709 17.8698 71.6439 17.8405 71.5527 17.7949C71.5007 17.7233 71.4746 17.6549 71.4746 17.5898V17.5605V17.4043ZM79.4434 22.6094C79.4434 22.5508 79.4434 22.4987 79.4434 22.4531C79.4499 22.4076 79.4694 22.349 79.502 22.2773C79.5345 22.1276 79.6029 22.0039 79.707 21.9062C79.8177 21.8086 79.9837 21.7272 80.2051 21.6621C80.2246 21.6556 80.2572 21.6458 80.3027 21.6328C80.3483 21.6263 80.3939 21.6198 80.4395 21.6133C80.485 21.6068 80.5241 21.6003 80.5566 21.5938C80.5957 21.5938 80.6185 21.5938 80.625 21.5938L80.9863 21.6621L81.2012 21.5938C81.2207 21.5938 81.25 21.5905 81.2891 21.584C81.3281 21.584 81.3835 21.584 81.4551 21.584C81.5723 21.584 81.6504 21.5807 81.6895 21.5742C81.735 21.5677 81.7708 21.5482 81.7969 21.5156C81.849 21.4375 81.8913 21.3691 81.9238 21.3105C81.9564 21.252 81.9824 21.1934 82.002 21.1348C82.028 21.0827 82.0475 21.0241 82.0605 20.959C82.0801 20.9004 82.0996 20.8255 82.1191 20.7344C82.1191 20.7279 82.1224 20.7051 82.1289 20.666C82.1354 20.6335 82.1419 20.5944 82.1484 20.5488C82.1549 20.5033 82.1615 20.4609 82.168 20.4219C82.1745 20.3828 82.181 20.3535 82.1875 20.334C82.1875 20.3079 82.2038 20.2591 82.2363 20.1875C82.2689 20.1159 82.3047 20.041 82.3438 19.9629C82.3828 19.8848 82.4186 19.8099 82.4512 19.7383C82.4902 19.6732 82.5195 19.6243 82.5391 19.5918L82.4707 19.1816C82.5423 19.0645 82.5977 18.957 82.6367 18.8594C82.6758 18.7617 82.6953 18.6445 82.6953 18.5078C82.6953 18.4883 82.6921 18.4622 82.6855 18.4297C82.679 18.4036 82.6758 18.3841 82.6758 18.3711C82.6758 18.319 82.6725 18.2539 82.666 18.1758C82.666 18.1042 82.6628 18.0358 82.6562 17.9707C82.6497 17.8991 82.6432 17.8372 82.6367 17.7852C82.6302 17.7331 82.627 17.7038 82.627 17.6973C82.627 17.6777 82.6139 17.6387 82.5879 17.5801C82.5618 17.515 82.5326 17.4466 82.5 17.375C82.474 17.3034 82.4447 17.235 82.4121 17.1699C82.3861 17.1048 82.373 17.0592 82.373 17.0332C82.3665 17.0202 82.3535 16.9811 82.334 16.916C82.3145 16.8509 82.2917 16.7826 82.2656 16.7109C82.2461 16.6328 82.2266 16.5612 82.207 16.4961C82.194 16.431 82.1875 16.3919 82.1875 16.3789L81.875 15.8516C81.875 15.8451 81.8717 15.819 81.8652 15.7734C81.8587 15.7279 81.8522 15.679 81.8457 15.627C81.8392 15.5749 81.8294 15.526 81.8164 15.4805C81.8099 15.4284 81.8034 15.3958 81.7969 15.3828C81.7969 15.3242 81.7904 15.2526 81.7773 15.168C81.7643 15.0768 81.7546 15.0312 81.748 15.0312C81.7415 15.0117 81.722 14.9857 81.6895 14.9531C81.6634 14.9206 81.6309 14.888 81.5918 14.8555C81.5592 14.8229 81.5267 14.7936 81.4941 14.7676C81.4616 14.7415 81.4453 14.7253 81.4453 14.7188L81.3086 14.3672L80.9863 13.9082L80.625 12.9805C80.6185 12.9674 80.599 12.9316 80.5664 12.873C80.5404 12.8079 80.5273 12.7721 80.5273 12.7656C80.5143 12.7526 80.4948 12.7363 80.4688 12.7168C80.4427 12.6908 80.4297 12.6712 80.4297 12.6582C80.4232 12.6517 80.4167 12.6224 80.4102 12.5703C80.4036 12.5182 80.3971 12.4629 80.3906 12.4043C80.3906 12.3457 80.3874 12.2936 80.3809 12.248C80.3809 12.196 80.3809 12.1634 80.3809 12.1504C80.3548 12.0462 80.3158 11.9355 80.2637 11.8184C80.2116 11.6947 80.1562 11.5742 80.0977 11.457C80.0391 11.3333 79.9772 11.2129 79.9121 11.0957C79.8535 10.9785 79.8014 10.8711 79.7559 10.7734C79.7559 10.7604 79.7493 10.7279 79.7363 10.6758C79.7233 10.6172 79.7103 10.5814 79.6973 10.5684C79.6973 10.5488 79.681 10.5228 79.6484 10.4902C79.6224 10.4512 79.5931 10.4251 79.5605 10.4121C79.3717 10.2624 79.1699 10.1452 78.9551 10.0605C78.7467 9.97591 78.5286 9.87826 78.3008 9.76758L78.2129 9.64062C78.1868 9.58854 78.1478 9.54948 78.0957 9.52344C78.0371 9.4974 78.0078 9.46159 78.0078 9.41602C78.0078 9.18815 78.0501 9.04167 78.1348 8.97656C78.2129 8.91146 78.3138 8.87891 78.4375 8.87891C78.5352 8.87891 78.6296 8.89518 78.7207 8.92773C78.8184 8.96029 78.9193 9.00586 79.0234 9.06445C79.043 9.06445 79.082 9.0612 79.1406 9.05469C79.1992 9.04818 79.2676 9.04492 79.3457 9.04492C79.4173 9.04492 79.4857 9.04818 79.5508 9.05469C79.6224 9.0612 79.6712 9.06445 79.6973 9.06445L79.9512 9.16211H80.2051C80.2116 9.16211 80.2376 9.15885 80.2832 9.15234C80.3353 9.13932 80.3874 9.12956 80.4395 9.12305C80.498 9.11003 80.5501 9.10026 80.5957 9.09375C80.6413 9.08073 80.6706 9.07096 80.6836 9.06445C80.7227 9.04492 80.7747 9.02865 80.8398 9.01562C80.9115 8.99609 80.9798 8.97982 81.0449 8.9668C81.11 8.95378 81.1654 8.94401 81.2109 8.9375C81.263 8.93099 81.2956 8.92773 81.3086 8.92773H81.748L82.0117 8.87891C82.0703 8.87891 82.1387 8.89193 82.2168 8.91797C82.3014 8.9375 82.3763 8.9668 82.4414 9.00586C82.513 9.04492 82.5716 9.09049 82.6172 9.14258C82.6693 9.18815 82.6953 9.23372 82.6953 9.2793C82.6953 9.33138 82.6888 9.40951 82.6758 9.51367C82.6628 9.61133 82.6335 9.6862 82.5879 9.73828C82.4837 9.84896 82.373 9.92708 82.2559 9.97266C82.1452 10.0182 82.0638 10.0475 82.0117 10.0605L81.8457 10.1094C81.8001 10.1289 81.748 10.1354 81.6895 10.1289C81.6374 10.1159 81.5885 10.1322 81.543 10.1777C81.5495 10.2298 81.5625 10.2949 81.582 10.373C81.6016 10.4447 81.6243 10.5163 81.6504 10.5879C81.6764 10.6595 81.6992 10.7246 81.7188 10.7832C81.7383 10.8353 81.748 10.8646 81.748 10.8711C81.7546 10.9362 81.7708 10.9948 81.7969 11.0469C81.8294 11.099 81.862 11.151 81.8945 11.2031C81.9271 11.2552 81.9596 11.3073 81.9922 11.3594C82.0247 11.4115 82.0508 11.4668 82.0703 11.5254L82.1875 12.1504C82.2005 12.2415 82.2331 12.3294 82.2852 12.4141C82.3372 12.4922 82.3926 12.5703 82.4512 12.6484C82.5098 12.7201 82.5684 12.7982 82.627 12.8828C82.6855 12.9609 82.7246 13.0456 82.7441 13.1367C82.7441 13.1432 82.7441 13.1725 82.7441 13.2246C82.7507 13.2767 82.7539 13.332 82.7539 13.3906C82.7604 13.4492 82.7669 13.5046 82.7734 13.5566C82.7799 13.6087 82.7865 13.638 82.793 13.6445C82.793 13.651 82.8125 13.6836 82.8516 13.7422C82.8906 13.8008 82.9167 13.8333 82.9297 13.8398C82.9362 13.8529 82.9525 13.8887 82.9785 13.9473C83.0046 14.0059 83.0273 14.0449 83.0469 14.0645L83.1934 14.3672C83.2064 14.4128 83.2292 14.4714 83.2617 14.543C83.2943 14.6081 83.3236 14.6406 83.3496 14.6406C83.3952 14.7122 83.444 14.7643 83.4961 14.7969C83.5547 14.8229 83.6068 14.8359 83.6523 14.8359C83.6849 14.8359 83.7305 14.8229 83.7891 14.7969C83.8477 14.7643 83.8932 14.7122 83.9258 14.6406C83.9453 14.6146 83.9681 14.5885 83.9941 14.5625C84.0462 14.5104 84.0853 14.4746 84.1113 14.4551L84.1309 14.3965C84.1374 14.3835 84.1439 14.3704 84.1504 14.3574C84.1569 14.3444 84.1602 14.3314 84.1602 14.3184C84.2383 14.123 84.3132 13.9245 84.3848 13.7227C84.4564 13.5208 84.528 13.3092 84.5996 13.0879C84.5996 13.0684 84.6061 13.026 84.6191 12.9609C84.6322 12.8893 84.6549 12.8405 84.6875 12.8145C84.6875 12.8079 84.6875 12.7884 84.6875 12.7559C84.694 12.7233 84.6973 12.6875 84.6973 12.6484C84.7038 12.6029 84.7103 12.5638 84.7168 12.5312C84.7233 12.4922 84.7298 12.4694 84.7363 12.4629L84.8828 12.0527C84.8893 12.0462 84.8958 12.0267 84.9023 11.9941C84.9089 11.9616 84.9154 11.929 84.9219 11.8965C84.9284 11.8574 84.9316 11.8249 84.9316 11.7988C84.9382 11.7663 84.9414 11.7435 84.9414 11.7305C84.9609 11.6654 84.9902 11.6003 85.0293 11.5352C85.0749 11.4701 85.1172 11.4082 85.1562 11.3496C85.1953 11.291 85.2311 11.2324 85.2637 11.1738C85.2962 11.1087 85.3125 11.0404 85.3125 10.9688C85.2995 10.9427 85.2799 10.9069 85.2539 10.8613C85.2344 10.8092 85.2181 10.7799 85.2051 10.7734V10.3633C85.2051 10.3503 85.179 10.3145 85.127 10.2559C85.0814 10.1973 85.0456 10.1615 85.0195 10.1484C84.9935 10.1354 84.9544 10.1191 84.9023 10.0996C84.8568 10.0736 84.8047 10.0508 84.7461 10.0312C84.6875 10.0117 84.6289 9.99544 84.5703 9.98242C84.5182 9.96289 84.4759 9.94987 84.4434 9.94336C84.3783 9.94336 84.3294 9.93359 84.2969 9.91406C84.2708 9.88802 84.2546 9.875 84.248 9.875L83.9258 9.64062C83.8932 9.54948 83.877 9.47461 83.877 9.41602C83.877 9.33138 83.8932 9.25651 83.9258 9.19141C83.9583 9.11979 83.9974 9.04818 84.043 8.97656C84.1276 8.93099 84.2057 8.90169 84.2773 8.88867C84.3555 8.86914 84.4238 8.85938 84.4824 8.85938C84.541 8.85286 84.5964 8.84635 84.6484 8.83984C84.7005 8.83333 84.7461 8.81706 84.7852 8.79102L85.0195 8.76172C85.0326 8.76172 85.0684 8.76497 85.127 8.77148C85.1921 8.77148 85.2604 8.77474 85.332 8.78125C85.4036 8.78776 85.4688 8.79427 85.5273 8.80078C85.5924 8.80078 85.6315 8.80404 85.6445 8.81055L85.9668 8.87891C86.1165 8.87891 86.25 8.85612 86.3672 8.81055C86.4909 8.76497 86.6276 8.7194 86.7773 8.67383H87.002C87.002 8.66081 87.0312 8.65104 87.0898 8.64453C87.1484 8.63151 87.1908 8.625 87.2168 8.625C87.2168 8.61198 87.2233 8.60547 87.2363 8.60547C87.2559 8.60547 87.2721 8.60547 87.2852 8.60547C87.3438 8.60547 87.4219 8.61849 87.5195 8.64453C87.6237 8.67057 87.7246 8.70638 87.8223 8.75195C87.9199 8.79753 88.0046 8.84961 88.0762 8.9082C88.1478 8.9668 88.1836 9.02865 88.1836 9.09375C88.1836 9.17188 88.1608 9.22721 88.1152 9.25977C88.0697 9.29232 88.0241 9.33464 87.9785 9.38672L87.6074 9.68945C87.5293 9.76107 87.4512 9.81641 87.373 9.85547C87.2949 9.88802 87.2135 9.91406 87.1289 9.93359C87.0508 9.95312 86.9661 9.9694 86.875 9.98242C86.7839 9.99544 86.6895 10.015 86.5918 10.041C86.4811 10.2103 86.3867 10.3828 86.3086 10.5586C86.237 10.7344 86.1589 10.9069 86.0742 11.0762C86.0742 11.1087 86.0677 11.151 86.0547 11.2031C86.0417 11.2487 86.0286 11.278 86.0156 11.291C86.0156 11.2975 86.0124 11.3171 86.0059 11.3496C86.0059 11.3757 86.0026 11.4082 85.9961 11.4473C85.9896 11.4798 85.9831 11.5124 85.9766 11.5449C85.9766 11.5775 85.9733 11.5938 85.9668 11.5938C85.9668 11.6068 85.9538 11.6296 85.9277 11.6621C85.9082 11.6947 85.8854 11.7337 85.8594 11.7793C85.8333 11.8184 85.8073 11.8574 85.7812 11.8965C85.7617 11.929 85.752 11.9486 85.752 11.9551V12.4629C85.7454 12.4694 85.7324 12.4922 85.7129 12.5312C85.6934 12.5638 85.6706 12.6029 85.6445 12.6484C85.625 12.6875 85.6022 12.7233 85.5762 12.7559C85.5566 12.7884 85.5404 12.8079 85.5273 12.8145C85.4362 12.9837 85.3288 13.166 85.2051 13.3613C85.0814 13.5566 84.9935 13.7585 84.9414 13.9668V14.3184C84.9414 14.3314 84.9284 14.3672 84.9023 14.4258C84.8828 14.4779 84.8665 14.5039 84.8535 14.5039C84.7819 14.6406 84.7363 14.7676 84.7168 14.8848C84.6973 15.002 84.6582 15.1159 84.5996 15.2266L84.3164 15.8027C84.2904 15.9329 84.2741 16.0664 84.2676 16.2031C84.2611 16.3398 84.2578 16.4798 84.2578 16.623C84.2578 16.7598 84.2546 16.8965 84.248 17.0332C84.2415 17.1699 84.2285 17.3066 84.209 17.4434C84.196 17.6061 84.1439 17.7656 84.0527 17.9219C83.9616 18.0781 83.8802 18.2279 83.8086 18.3711C83.7956 18.3841 83.776 18.4004 83.75 18.4199C83.7305 18.446 83.7207 18.4622 83.7207 18.4688C83.6947 18.5078 83.6686 18.5697 83.6426 18.6543C83.6296 18.6934 83.6165 18.7357 83.6035 18.7812C83.597 18.8203 83.5905 18.8822 83.584 18.9668C83.5775 19.0514 83.571 19.1393 83.5645 19.2305C83.5645 19.3216 83.5612 19.4062 83.5547 19.4844C83.5547 19.569 83.5547 19.6276 83.5547 19.6602C83.4896 19.7122 83.4408 19.7871 83.4082 19.8848C83.3822 19.9824 83.3594 20.0898 83.3398 20.207C83.3268 20.3242 83.3138 20.4382 83.3008 20.5488C83.2943 20.666 83.278 20.7637 83.252 20.8418L82.9785 21.1934C82.9655 21.2064 82.9525 21.2487 82.9395 21.3203C82.9329 21.3984 82.9297 21.4473 82.9297 21.4668C82.9102 21.4863 82.8874 21.5189 82.8613 21.5645C82.8353 21.6035 82.8027 21.6589 82.7637 21.7305C82.7246 21.8021 82.679 21.8997 82.627 22.0234C82.627 22.0299 82.6204 22.0495 82.6074 22.082C82.5944 22.1211 82.5781 22.1602 82.5586 22.1992C82.5391 22.2448 82.5195 22.2871 82.5 22.3262C82.487 22.3652 82.4772 22.388 82.4707 22.3945C82.4447 22.4857 82.4056 22.5443 82.3535 22.5703C82.3079 22.5964 82.2526 22.6387 82.1875 22.6973C82.1484 22.7298 82.1191 22.7559 82.0996 22.7754C82.0801 22.8014 82.0638 22.8242 82.0508 22.8438C82.0378 22.8633 82.0215 22.8828 82.002 22.9023C81.9889 22.9284 81.9661 22.9609 81.9336 23C81.8424 23.1172 81.7383 23.1855 81.6211 23.2051C81.5039 23.2311 81.3802 23.2637 81.25 23.3027L81.0547 23.459C80.9766 23.485 80.9017 23.498 80.8301 23.498C80.7585 23.5046 80.6901 23.5078 80.625 23.5078C80.5013 23.5078 80.3711 23.485 80.2344 23.4395C80.0977 23.4004 79.9707 23.3418 79.8535 23.2637C79.7363 23.1855 79.6387 23.0911 79.5605 22.9805C79.4824 22.8698 79.4434 22.7461 79.4434 22.6094Z" fill="#D21E6A"/>
</svg>
