<svg width="24" height="24" viewBox="0 0 24 24" fill="none" xmlns="http://www.w3.org/2000/svg">
<g clip-path="url(#clip0_196_533)">
<path d="M19 23.5H14C13.8674 23.5 13.7402 23.4473 13.6464 23.3536C13.5527 23.2598 13.5 23.1326 13.5 23C13.5 22.8674 13.5527 22.7402 13.6464 22.6464C13.7402 22.5527 13.8674 22.5 14 22.5H19C19.1326 22.5 19.2598 22.5527 19.3536 22.6464C19.4473 22.7402 19.5 22.8674 19.5 23C19.5 23.1326 19.4473 23.2598 19.3536 23.3536C19.2598 23.4473 19.1326 23.5 19 23.5ZM5.5 23.5H1C0.867392 23.5 0.740215 23.4473 0.646447 23.3536C0.552678 23.2598 0.5 23.1326 0.5 23C0.5 22.8674 0.552678 22.7402 0.646447 22.6464C0.740215 22.5527 0.867392 22.5 1 22.5H5.5C5.63261 22.5 5.75979 22.5527 5.85355 22.6464C5.94732 22.7402 6 22.8674 6 23C6 23.1326 5.94732 23.2598 5.85355 23.3536C5.75979 23.4473 5.63261 23.5 5.5 23.5ZM12 23.5H11C10.8674 23.5 10.7402 23.4473 10.6464 23.3536C10.5527 23.2598 10.5 23.1326 10.5 23C10.5 22.8674 10.5527 22.7402 10.6464 22.6464C10.7402 22.5527 10.8674 22.5 11 22.5H12C12.1326 22.5 12.2598 22.5527 12.3536 22.6464C12.4473 22.7402 12.5 22.8674 12.5 23C12.5 23.1326 12.4473 23.2598 12.3536 23.3536C12.2598 23.4473 12.1326 23.5 12 23.5Z" fill="#747575"/>
<path d="M10.5 13.5V16H6.5C5.83696 16 5.20107 16.2634 4.73223 16.7322C4.26339 17.2011 4 17.837 4 18.5V20.5H0.5V18.5C0.5 16.9087 1.13214 15.3826 2.25736 14.2574C3.38258 13.1321 4.9087 12.5 6.5 12.5H9.5C9.76522 12.5 10.0196 12.6054 10.2071 12.7929C10.3946 12.9804 10.5 13.2348 10.5 13.5Z" fill="#C4455E"/>
<path d="M9.49994 12.5H6.49994C5.35822 12.5006 4.24037 12.8269 3.27765 13.4407C2.31493 14.0545 1.54732 14.9302 1.06494 15.965C3.17494 13.65 5.46994 14 8.49994 14C8.76516 14 9.01951 14.1054 9.20705 14.2929C9.39458 14.4804 9.49994 14.7348 9.49994 15V16H10.4999V13.5C10.4999 13.2348 10.3946 12.9804 10.207 12.7929C10.0195 12.6054 9.76516 12.5 9.49994 12.5ZM18.4999 15.5L16.4999 20.5H10.4999V18.5H13.7449C13.9961 18.5009 14.2383 18.4073 14.4236 18.2378C14.6089 18.0682 14.7236 17.8352 14.7449 17.585C15.5699 7.11 15.4999 8.135 15.4999 8L17.4999 8.5C17.5999 9.21 17.4349 8.075 18.4999 15.5Z" fill="#D21E6A"/>
<path d="M18.5 15.5C16.855 19.615 16.85 19.5 16.9 19.5C16.7894 19.4996 16.6804 19.4722 16.5827 19.4202C16.485 19.3681 16.4015 19.293 16.3394 19.2014C16.2774 19.1097 16.2386 19.0043 16.2265 18.8943C16.2144 18.7843 16.2293 18.6729 16.27 18.57L17.5 15.5C16.435 8.075 16.6 9.2 16.5 8.5C15.3 8.2 15.475 8.34 15.5 8L17.5 8.5C17.6 9.21 17.435 8.075 18.5 15.5Z" fill="#F26674"/>
<path d="M19.5 5V8C19.5 8.13261 19.4473 8.25979 19.3536 8.35355C19.2598 8.44732 19.1326 8.5 19 8.5H16.5C15.9696 8.5 15.4609 8.28929 15.0858 7.91421C14.7107 7.53914 14.5 7.03043 14.5 6.5C14.5 5.96957 14.7107 5.46086 15.0858 5.08579C15.4609 4.71071 15.9696 4.5 16.5 4.5H19C19.1326 4.5 19.2598 4.55268 19.3536 4.64645C19.4473 4.74021 19.5 4.86739 19.5 5Z" fill="#D21E6A"/>
<path d="M17.5699 9C16.5699 9 16.0399 9.075 15.4449 8.695C15.5249 7.765 15.3099 8.5 16.4999 8.5H17.4999L17.5699 9Z" fill="#C4455E"/>
<path d="M21 6.5C21 6.89782 20.842 7.27936 20.5607 7.56066C20.2794 7.84196 19.8978 8 19.5 8V5C19.8978 5 20.2794 5.15804 20.5607 5.43934C20.842 5.72064 21 6.10218 21 6.5Z" fill="#FFCC66"/>
<path d="M20.78 7.28C20.5451 7.42351 20.2753 7.49962 20 7.5V5.09C20.2097 5.16465 20.4001 5.28502 20.5575 5.44238C20.7149 5.59975 20.8352 5.79016 20.9099 5.99982C20.9846 6.20948 21.0117 6.43313 20.9892 6.65455C20.9667 6.87597 20.8953 7.08961 20.78 7.28Z" fill="#FFDE76"/>
<path d="M15.5 7H12.5C12.3674 7 12.2402 6.94732 12.1464 6.85355C12.0527 6.75979 12 6.63261 12 6.5C12 6.36739 12.0527 6.24021 12.1464 6.14645C12.2402 6.05268 12.3674 6 12.5 6H15.5C15.6326 6 15.7598 6.05268 15.8536 6.14645C15.9473 6.24021 16 6.36739 16 6.5C16 6.63261 15.9473 6.75979 15.8536 6.85355C15.7598 6.94732 15.6326 7 15.5 7Z" fill="#374F68"/>
<path d="M23.5 20.5H16.5C18.695 15 18.43 15.5 18.665 15.5C19.9623 15.5428 21.1921 16.0885 22.0943 17.0215C22.9966 17.9546 23.5007 19.202 23.5 20.5Z" fill="#C4455E"/>
<path d="M23.4 19.5H16.9L18.5 15.5C19.6527 15.4998 20.77 15.8978 21.6629 16.6267C22.5558 17.3556 23.1695 18.3706 23.4 19.5Z" fill="#D21E6A"/>
<path d="M8.5 20.5C8.5 21.2956 8.18393 22.0587 7.62132 22.6213C7.05871 23.1839 6.29565 23.5 5.5 23.5C4.70435 23.5 3.94129 23.1839 3.37868 22.6213C2.81607 22.0587 2.5 21.2956 2.5 20.5H8.5ZM21.955 21C21.405 24.32 16.595 24.315 16.045 21H21.955Z" fill="#374F68"/>
<path d="M6.5 20.5C6.5 20.7652 6.39464 21.0196 6.20711 21.2071C6.01957 21.3946 5.76522 21.5 5.5 21.5C5.23478 21.5 4.98043 21.3946 4.79289 21.2071C4.60536 21.0196 4.5 20.7652 4.5 20.5H6.5ZM19.865 21C19.7771 21.1515 19.6509 21.2773 19.4991 21.3648C19.3473 21.4522 19.1752 21.4982 19 21.4982C18.8248 21.4982 18.6527 21.4522 18.5009 21.3648C18.3491 21.2773 18.2229 21.1515 18.135 21H19.865Z" fill="#7C7D7D"/>
<path d="M0.5 6.5H7.5V12.5H0.5V6.5Z" fill="#A87E6B"/>
<path d="M7.5 6.5V11.5H4.5C3.96957 11.5 3.46086 11.2893 3.08579 10.9142C2.71071 10.5391 2.5 10.0304 2.5 9.5V6.5H7.5Z" fill="#BE927C"/>
<path d="M10.5 12.5H7.5V10.5C8.455 10.5 9.565 10.345 10.23 11.5C10.4063 11.8038 10.4994 12.1487 10.5 12.5Z" fill="#2C435E"/>
<path d="M10.23 11.5H7.5V10.5C8.455 10.5 9.565 10.345 10.23 11.5Z" fill="#374F68"/>
<path d="M5 6.5V9.5L4 9L3 9.5V6.5H5Z" fill="#F6CCAF"/>
<path d="M19.5 5V7.5H19C18.2044 7.5 17.4413 7.18393 16.8787 6.62132C16.3161 6.05871 16 5.29565 16 4.5H19C19.1326 4.5 19.2598 4.55268 19.3536 4.64645C19.4473 4.74021 19.5 4.86739 19.5 5Z" fill="#F26674"/>
<path d="M16 5C15.625 5 15.695 4.965 14.085 2.275C14.0261 2.16522 14.0104 2.0374 14.0408 1.91659C14.0712 1.79578 14.1456 1.69067 14.2494 1.62186C14.3533 1.55304 14.4791 1.52547 14.6022 1.54455C14.7253 1.56363 14.8369 1.62798 14.915 1.725L16.415 4.225C16.4645 4.3002 16.4928 4.38738 16.4969 4.47733C16.501 4.56728 16.4807 4.65666 16.4382 4.73604C16.3957 4.81542 16.3326 4.88184 16.2554 4.9283C16.1783 4.97477 16.0901 4.99954 16 5Z" fill="#374F68"/>
<path d="M14 2.5H12.5V0.5H14C14.2652 0.5 14.5196 0.605357 14.7071 0.792893C14.8946 0.98043 15 1.23478 15 1.5C15 1.76522 14.8946 2.01957 14.7071 2.20711C14.5196 2.39464 14.2652 2.5 14 2.5ZM10.5 16V20.5H4V18.5C4 17.837 4.26339 17.2011 4.73223 16.7322C5.20107 16.2634 5.83696 16 6.5 16H10.5Z" fill="#D21E6A"/>
<path d="M6.49994 16C6.05125 16.0029 5.61161 16.1266 5.22716 16.3579C4.84271 16.5893 4.52762 16.9199 4.31494 17.315C5.05494 16.91 5.13994 17 9.49994 17V20.5H10.4999V16H6.49994Z" fill="#F26674"/>
<path d="M5 6.5V8.5H4.5C4.23478 8.5 3.98043 8.39464 3.79289 8.20711C3.60536 8.01957 3.5 7.76522 3.5 7.5V6.5H5Z" fill="#FFDEC7"/>
<path d="M20 20.5C19.9997 20.6756 19.9531 20.8481 19.865 21H18.135C18.0469 20.8481 18.0003 20.6756 18 20.5H20Z" fill="#747575"/>
<path d="M18 20.5C18.0003 20.6756 18.0469 20.8481 18.135 21H16.045C16.0147 20.8351 15.9996 20.6677 16 20.5H18ZM22 20.5C22.0004 20.6677 21.9853 20.8351 21.955 21H19.865C19.9531 20.8481 19.9997 20.6756 20 20.5H22Z" fill="#2C435E"/>
<path d="M6.5 20.5C6.49969 20.6756 6.45313 20.8481 6.365 21H4.635C4.54687 20.8481 4.50031 20.6756 4.5 20.5H6.5Z" fill="#747575"/>
<path d="M4.50001 20.5C4.50032 20.6756 4.54688 20.8481 4.63501 21H2.54501C2.51471 20.8351 2.49965 20.6677 2.50001 20.5H4.50001ZM8.50001 20.5C8.50037 20.6677 8.4853 20.8351 8.45501 21H6.36501C6.45313 20.8481 6.49969 20.6756 6.50001 20.5H8.50001Z" fill="#2C435E"/>
</g>
<defs>
<clipPath id="clip0_196_533">
<rect width="24" height="24" fill="white"/>
</clipPath>
</defs>
</svg>
