<svg width="24" height="24" viewBox="0 0 24 24" fill="none" xmlns="http://www.w3.org/2000/svg">
<path d="M12.1557 8.68103L5.11698 17.3529C5.07386 17.4054 5.04011 17.4654 5.01573 17.5292L4.10073 19.931C3.89823 20.4635 4.40448 20.9904 4.88823 20.7448L7.14198 19.5992C7.20573 19.5673 7.26573 19.5204 7.31448 19.466L15.017 10.8035C15.1501 10.6554 15.2064 10.4454 15.1689 10.2429C15.032 9.5004 14.4901 7.84853 12.422 8.49353C12.3189 8.5254 12.227 8.5929 12.1557 8.68103Z" fill="#BCAAA4"/>
<path d="M7.14187 19.6013L4.88812 20.7469C4.40624 20.9925 3.89812 20.4656 4.10062 19.9331L5.01562 17.5312L7.14187 19.6013Z" fill="#BDBDBD"/>
<path d="M11.9999 8.687C12.9636 7.6295 16.6743 3.69575 18.8868 2.72825C19.7249 2.36075 20.7786 3.00388 20.5105 4.04825C20.1393 5.48638 14.9549 11.4058 14.9549 11.4058C14.848 11.5426 14.443 11.6383 14.3211 11.5876C14.2799 11.5708 14.4336 11.4826 14.4036 11.4339L14.3811 11.342C14.3624 11.267 14.3324 11.1939 14.2911 11.1283C13.7736 10.3126 13.0518 9.76513 12.0974 9.32825C11.9924 9.2795 11.6399 9.28138 11.6399 9.28138C11.6399 9.01513 11.8499 8.852 11.9999 8.687Z" fill="black"/>
<path d="M4.2694 19.5449L4.01815 20.1674C3.8419 20.6024 4.28253 21.0318 4.69878 20.8312L5.35128 20.5199L4.2694 19.5449Z" fill="#212121"/>
<path d="M9.76678 15.3843L9.67115 15.2961C9.63964 15.2672 9.62064 15.2271 9.61819 15.1844C9.61574 15.1417 9.63003 15.0997 9.65803 15.0674L13.2974 10.918C13.3112 10.9024 13.3278 10.8897 13.3465 10.8806C13.3652 10.8715 13.3855 10.8662 13.4062 10.865C13.427 10.8638 13.4477 10.8667 13.4674 10.8735C13.487 10.8804 13.505 10.891 13.5205 10.9049L13.6162 10.993C13.6818 11.053 13.6874 11.1561 13.6293 11.2218L9.9899 15.373C9.97617 15.3887 9.95943 15.4014 9.94067 15.4105C9.92192 15.4196 9.90153 15.4248 9.88072 15.4259C9.85991 15.4269 9.8391 15.4238 9.81953 15.4166C9.79996 15.4095 9.78202 15.3985 9.76678 15.3843Z" fill="#FAFAFA"/>
<path d="M12.0638 8.57982C13.0275 7.53732 16.8582 3.41419 19.0707 2.45794C19.9088 2.09607 20.9625 2.72607 20.6944 3.75357C20.3232 5.16919 15.1988 11.0998 15.1988 11.0998C15.0563 11.2798 14.7675 11.2648 14.6494 11.0698C14.1244 10.2017 13.3144 9.52669 12.345 9.14607L12.1857 9.08419C11.9738 8.99982 11.9119 8.74294 12.0638 8.57982Z" fill="#795548"/>
<path d="M17.008 9.33387C18.2661 7.81699 19.2899 6.75575 20.4505 4.9445C20.5555 4.7795 20.8143 5.0195 20.713 5.19387C19.8636 6.69387 17.8386 8.9945 17.3193 9.587C17.188 9.73512 16.8974 9.46699 17.008 9.33387Z" fill="black"/>
<path d="M20.6644 5.30085C20.5707 5.43022 20.3869 5.45835 20.2576 5.3646L19.9763 5.16022C19.9142 5.11451 19.8726 5.04611 19.8607 4.96991C19.8488 4.89371 19.8674 4.81587 19.9126 4.75335C20.0063 4.62397 20.1901 4.59585 20.3194 4.6896L20.6007 4.89397C20.7319 4.98772 20.7601 5.17147 20.6644 5.30085Z" fill="black"/>
<path d="M5.01562 17.5293C5.01562 17.5293 5.0475 17.4562 5.0625 17.4337C5.07375 17.413 5.11688 17.353 5.11688 17.353L7.31437 19.4662C7.31437 19.4662 7.25437 19.5262 7.22812 19.5449C7.20375 19.5637 7.14188 19.5993 7.14188 19.5993L5.01562 17.5293Z" fill="white"/>
</svg>
