<svg width="24" height="24" viewBox="0 0 24 24" fill="none" xmlns="http://www.w3.org/2000/svg">
<path d="M12.1738 7.20443C12.9412 7.20443 13.5634 6.58229 13.5634 5.81483C13.5634 5.04738 12.9412 4.42523 12.1738 4.42523C11.4063 4.42523 10.7842 5.04738 10.7842 5.81483C10.7842 6.58229 11.4063 7.20443 12.1738 7.20443Z" fill="#161616"/>
<path d="M8.9508 7.95229C9.6543 7.95229 10.2246 7.38199 10.2246 6.67849C10.2246 5.97499 9.6543 5.40469 8.9508 5.40469C8.2473 5.40469 7.677 5.97499 7.677 6.67849C7.677 7.38199 8.2473 7.95229 8.9508 7.95229Z" fill="#0F0F0F"/>
<path d="M6.59159 10.1957C7.23114 10.1957 7.74959 9.67721 7.74959 9.03767C7.74959 8.39812 7.23114 7.87967 6.59159 7.87967C5.95205 7.87967 5.43359 8.39812 5.43359 9.03767C5.43359 9.67721 5.95205 10.1957 6.59159 10.1957Z" fill="#3A3A3A"/>
<path d="M5.72799 13.3027C6.30358 13.3027 6.77019 12.8361 6.77019 12.2605C6.77019 11.6849 6.30358 11.2183 5.72799 11.2183C5.1524 11.2183 4.68579 11.6849 4.68579 12.2605C4.68579 12.8361 5.1524 13.3027 5.72799 13.3027Z" fill="#414141"/>
<path d="M6.59154 16.4677C7.13518 16.4677 7.5759 16.027 7.5759 15.4834C7.5759 14.9397 7.13518 14.499 6.59154 14.499C6.04789 14.499 5.60718 14.9397 5.60718 15.4834C5.60718 16.027 6.04789 16.4677 6.59154 16.4677Z" fill="#484848"/>
<path d="M8.95081 18.7691C9.46245 18.7691 9.87721 18.3543 9.87721 17.8427C9.87721 17.3311 9.46245 16.9163 8.95081 16.9163C8.43918 16.9163 8.02441 17.3311 8.02441 17.8427C8.02441 18.3543 8.43918 18.7691 8.95081 18.7691Z" fill="#727272"/>
<path d="M12.1737 19.5748C12.6534 19.5748 13.0423 19.1859 13.0423 18.7062C13.0423 18.2265 12.6534 17.8376 12.1737 17.8376C11.694 17.8376 11.3052 18.2265 11.3052 18.7062C11.3052 19.1859 11.694 19.5748 12.1737 19.5748Z" fill="#737373"/>
<path d="M15.3965 18.6533C15.8442 18.6533 16.2071 18.2904 16.2071 17.8427C16.2071 17.395 15.8442 17.0321 15.3965 17.0321C14.9489 17.0321 14.5859 17.395 14.5859 17.8427C14.5859 18.2904 14.9489 18.6533 15.3965 18.6533Z" fill="#959595"/>
<path d="M17.7557 16.2361C18.1714 16.2361 18.5084 15.8991 18.5084 15.4834C18.5084 15.0676 18.1714 14.7306 17.7557 14.7306C17.34 14.7306 17.0029 15.0676 17.0029 15.4834C17.0029 15.8991 17.34 16.2361 17.7557 16.2361Z" fill="#A6A6A6"/>
<path d="M18.6194 12.9553C19.0031 12.9553 19.3142 12.6443 19.3142 12.2605C19.3142 11.8768 19.0031 11.5657 18.6194 11.5657C18.2356 11.5657 17.9246 11.8768 17.9246 12.2605C17.9246 12.6443 18.2356 12.9553 18.6194 12.9553Z" fill="#BFBFBF"/>
<path d="M17.7559 9.67465C18.1076 9.67465 18.3928 9.38947 18.3928 9.03769C18.3928 8.6859 18.1076 8.40073 17.7559 8.40073C17.4041 8.40073 17.1189 8.6859 17.1189 9.03769C17.1189 9.38947 17.4041 9.67465 17.7559 9.67465Z" fill="#CFCFCF"/>
<path d="M15.3964 7.25749C15.7162 7.25749 15.9754 6.99826 15.9754 6.67849C15.9754 6.35871 15.7162 6.09949 15.3964 6.09949C15.0766 6.09949 14.8174 6.35871 14.8174 6.67849C14.8174 6.99826 15.0766 7.25749 15.3964 7.25749Z" fill="#DFDFDF"/>
</svg>
