<svg width="20" height="20" viewBox="0 0 20 20" fill="none" xmlns="http://www.w3.org/2000/svg">
<path fill-rule="evenodd" clip-rule="evenodd" d="M10.6799 18.88L9.99992 16.48L9.31992 18.88H10.6799ZM9.68436 1.3234C9.74052 1.19956 9.86392 1.12 9.99992 1.12C10.1359 1.12 10.2593 1.19956 10.3155 1.3234L12.7508 6.6938L18.6108 7.35032C18.746 7.36548 18.8598 7.45828 18.9018 7.5876C18.9438 7.71692 18.9063 7.85888 18.8059 7.9506L14.4509 11.9262L15.6373 17.7024C15.6647 17.8356 15.6116 17.9725 15.5016 18.0524C15.3916 18.1323 15.245 18.1405 15.1267 18.0733L9.99992 15.16L4.87312 18.0733C4.75488 18.1405 4.60828 18.1323 4.49824 18.0524C4.38824 17.9725 4.33516 17.8356 4.36252 17.7024L5.54896 11.9262L1.19396 7.9506C1.09352 7.85888 1.056 7.71692 1.09804 7.5876C1.14004 7.45828 1.25384 7.36548 1.389 7.35032L7.24908 6.6938L9.68436 1.3234ZM2.22468 13.7309L4.2956 12.3403L1.80304 12.4379L2.22468 13.7309ZM18.2038 12.4085L15.7109 12.3198L17.7868 13.703L18.2038 12.4085ZM4.4706 4.12008L6.44148 5.64912L5.5656 3.31348L4.4706 4.12008ZM14.4178 3.30336L13.5473 5.641L15.5147 4.1074L14.4178 3.30336Z" fill="#FFD900"/>
</svg>
