<svg width="24" height="24" viewBox="0 0 24 24" fill="none" xmlns="http://www.w3.org/2000/svg">
<path d="M20.7514 15.8224C19.5146 15.0135 16.9789 14.1364 13.5 16.8701V14.2931C15.5344 14.25 17.016 12.9225 17.7195 10.8862C18.4474 8.7735 17.5372 4.55737 16.9297 2.23237C16.8813 2.05441 16.79 1.89099 16.664 1.75635C16.5379 1.62171 16.3808 1.51994 16.2064 1.4599C16.032 1.39985 15.8456 1.38336 15.6634 1.41185C15.4811 1.44034 15.3086 1.51296 15.1609 1.62337C14.714 1.96452 14.2736 2.31396 13.8397 2.6715C13.3275 2.01487 13.0099 0.769496 12 0.748871C10.9755 0.801371 10.7696 1.85737 10.158 2.67112C9.72429 2.31305 9.28384 1.96323 8.83687 1.62187C8.68892 1.51199 8.51637 1.43989 8.33421 1.41186C8.15206 1.38383 7.96582 1.4007 7.79168 1.46102C7.61753 1.52134 7.46075 1.62327 7.33495 1.75796C7.20916 1.89264 7.11816 2.05602 7.06987 2.23387C6.46237 4.55887 5.55187 8.775 6.27937 10.8847C6.98324 12.9221 8.46487 14.2511 10.5 14.2942V16.8705C7.01999 14.136 4.48499 15.0139 3.24749 15.8231C3.10472 15.9187 2.99893 16.0602 2.9477 16.2242C2.89647 16.3881 2.90288 16.5647 2.96586 16.7245C3.02885 16.8844 3.14462 17.0179 3.29395 17.1028C3.44328 17.1877 3.61717 17.219 3.78674 17.1915C7.85699 16.4565 10.149 20.1135 10.5 20.7225V21.75C10.5 22.1478 10.658 22.5294 10.9393 22.8107C11.2206 23.092 11.6022 23.25 12 23.25C12.3978 23.25 12.7793 23.092 13.0607 22.8107C13.342 22.5294 13.5 22.1478 13.5 21.75V20.7225C13.8502 20.1131 16.1381 16.4569 20.2151 17.1919C20.3847 17.219 20.5585 17.1873 20.7077 17.1021C20.8568 17.0168 20.9722 16.8831 21.0349 16.7231C21.0975 16.5632 21.1035 16.3866 21.052 16.2228C21.0004 16.0589 20.8943 15.9176 20.7514 15.8224ZM15.6157 2.21962C15.6648 2.18275 15.7222 2.15846 15.7828 2.1489C15.8434 2.13934 15.9055 2.14479 15.9635 2.16478C16.0215 2.18476 16.0738 2.21867 16.1157 2.26354C16.1575 2.3084 16.1878 2.36285 16.2037 2.42212C16.6759 4.22775 17.6985 8.64375 17.0104 10.6421C15.3866 15.8216 8.00774 13.4546 9.91912 8.2005C10.6076 6.20062 14.133 3.35175 15.6157 2.21962ZM11.6895 1.66612C11.7248 1.61681 11.7714 1.57662 11.8254 1.5489C11.8793 1.52118 11.9391 1.50672 11.9998 1.50672C12.0605 1.50672 12.1203 1.52118 12.1742 1.5489C12.2282 1.57662 12.2748 1.61681 12.3101 1.66612C12.6471 2.17362 12.9636 2.67137 13.2596 3.15937C12.8292 3.52758 12.4087 3.90722 11.9985 4.29787C11.5886 3.90768 11.1686 3.5283 10.7389 3.16012C11.0454 2.65555 11.3621 2.15744 11.6895 1.66612ZM9.03224 13.1925C5.34787 11.31 7.09837 5.4375 7.79587 2.42362C7.81178 2.36442 7.84191 2.31 7.88364 2.26509C7.92537 2.22018 7.97743 2.18614 8.03531 2.16592C8.09318 2.14571 8.15512 2.13993 8.21573 2.14909C8.27634 2.15825 8.3338 2.18208 8.38312 2.2185C9.45407 3.03377 10.4823 3.90367 11.4637 4.82475C10.4257 5.87925 9.54487 6.98587 9.21074 7.95637C8.40299 10.3024 9.06299 12.4155 10.8446 13.5349C10.2206 13.5868 9.59426 13.4685 9.03224 13.1925ZM3.65887 16.4501C5.02199 15.558 7.31137 15.0926 10.5 17.8451V19.4145C9.41399 18.0345 7.09237 15.831 3.65887 16.4501ZM12 22.5C11.8011 22.4998 11.6105 22.4207 11.4699 22.2801C11.3293 22.1395 11.2502 21.9488 11.25 21.75V14.2432C11.5047 14.2044 11.756 14.1454 12.0015 14.067C12.246 14.145 12.4963 14.2037 12.75 14.2425V21.75C12.7498 21.9488 12.6707 22.1395 12.5301 22.2801C12.3895 22.4207 12.1988 22.4998 12 22.5ZM13.5 19.4145V17.8451C16.6886 15.093 18.9776 15.5587 20.3467 16.4535C16.908 15.8321 14.586 18.0345 13.5 19.4145Z" fill="black"/>
</svg>
