<svg width="24" height="24" viewBox="0 0 24 24" fill="none" xmlns="http://www.w3.org/2000/svg">
<g clip-path="url(#clip0_186_2095)">
<path d="M24 0H0V24H24V0Z" fill="black"/>
<path d="M23.2 1.2H0.800049V2.862H23.2V1.2Z" fill="#B22234"/>
<path d="M23.2 2.862H0.800049V4.524H23.2V2.862Z" fill="white"/>
<path d="M23.2 4.524H0.800049V6.186H23.2V4.524Z" fill="#B22234"/>
<path d="M23.2 6.186H0.800049V7.848H23.2V6.186Z" fill="white"/>
<path d="M23.2 7.848H0.800049V9.51H23.2V7.848Z" fill="#B22234"/>
<path d="M23.2 9.51H0.800049V11.172H23.2V9.51Z" fill="white"/>
<path d="M23.2 11.172H0.800049V12.834H23.2V11.172Z" fill="#B22234"/>
<path d="M23.2 12.834H0.800049V14.496H23.2V12.834Z" fill="white"/>
<path d="M23.2 14.496H0.800049V16.158H23.2V14.496Z" fill="#B22234"/>
<path d="M23.2 16.158H0.800049V17.82H23.2V16.158Z" fill="white"/>
<path d="M23.2 17.82H0.800049V19.482H23.2V17.82Z" fill="#B22234"/>
<path d="M23.2 19.482H0.800049V21.144H23.2V19.482Z" fill="white"/>
<path d="M12 1.2H0.800049V12.834H12V1.2Z" fill="#3C3B6E"/>
<path d="M2.00002 2.9856L1.74002 3.2676L1.83842 2.8092L1.57922 2.5188H1.90002L2.00002 2.0676L2.10002 2.5188H2.42082L2.16162 2.8092L2.26002 3.2676L2.00002 2.9856Z" fill="white"/>
<path d="M3.76003 2.9856L3.50003 3.2676L3.59843 2.8092L3.33923 2.5188H3.66003L3.76003 2.0676L3.86003 2.5188H4.18083L3.92163 2.8092L4.02003 3.2676L3.76003 2.9856Z" fill="white"/>
<path d="M5.52004 2.9856L5.26004 3.2676L5.35844 2.8092L5.09924 2.5188H5.42004L5.52004 2.0676L5.62004 2.5188H5.94084L5.68164 2.8092L5.78004 3.2676L5.52004 2.9856Z" fill="white"/>
<path d="M7.28005 2.9856L7.02005 3.2676L7.11845 2.8092L6.85925 2.5188H7.18005L7.28005 2.0676L7.38005 2.5188H7.70085L7.44165 2.8092L7.54005 3.2676L7.28005 2.9856Z" fill="white"/>
<path d="M9.03994 2.9856L8.77994 3.2676L8.87834 2.8092L8.61914 2.5188H8.93994L9.03994 2.0676L9.13994 2.5188H9.46074L9.20154 2.8092L9.29994 3.2676L9.03994 2.9856Z" fill="white"/>
<path d="M10.8 2.9856L10.54 3.2676L10.6384 2.8092L10.3792 2.5188H10.7L10.8 2.0676L10.9 2.5188H11.2208L10.9616 2.8092L11.06 3.2676L10.8 2.9856Z" fill="white"/>
<path d="M2.88003 4.4364L2.62003 4.7172L2.71843 4.26L2.45923 3.9684H2.78003L2.88003 3.5172L2.98003 3.9684H3.30083L3.04163 4.26L3.14003 4.7172L2.88003 4.4364Z" fill="white"/>
<path d="M4.64004 4.4364L4.38004 4.7172L4.47844 4.26L4.21924 3.9684H4.54004L4.64004 3.5172L4.74004 3.9684H5.06084L4.80164 4.26L4.90004 4.7172L4.64004 4.4364Z" fill="white"/>
<path d="M6.40005 4.4364L6.14005 4.7172L6.23845 4.26L5.97925 3.9684H6.30005L6.40005 3.5172L6.50005 3.9684H6.82085L6.56165 4.26L6.66005 4.7172L6.40005 4.4364Z" fill="white"/>
<path d="M8.16006 4.4364L7.90006 4.7172L7.99846 4.26L7.73926 3.9684H8.06006L8.16006 3.5172L8.26006 3.9684H8.58086L8.32166 4.26L8.42006 4.7172L8.16006 4.4364Z" fill="white"/>
<path d="M9.91995 4.4364L9.65995 4.7172L9.75835 4.26L9.49915 3.9684H9.81995L9.91995 3.5172L10.0199 3.9684H10.3407L10.0815 4.26L10.1799 4.7172L9.91995 4.4364Z" fill="white"/>
<path d="M2.00002 5.886L1.74002 6.168L1.83842 5.7096L1.57922 5.418H1.90002L2.00002 4.968L2.10002 5.418H2.42082L2.16162 5.7096L2.26002 6.168L2.00002 5.886Z" fill="white"/>
<path d="M3.76003 5.886L3.50003 6.168L3.59843 5.7096L3.33923 5.418H3.66003L3.76003 4.968L3.86003 5.418H4.18083L3.92163 5.7096L4.02003 6.168L3.76003 5.886Z" fill="white"/>
<path d="M5.52004 5.886L5.26004 6.168L5.35844 5.7096L5.09924 5.418H5.42004L5.52004 4.968L5.62004 5.418H5.94084L5.68164 5.7096L5.78004 6.168L5.52004 5.886Z" fill="white"/>
<path d="M7.28005 5.886L7.02005 6.168L7.11845 5.7096L6.85925 5.418H7.18005L7.28005 4.968L7.38005 5.418H7.70085L7.44165 5.7096L7.54005 6.168L7.28005 5.886Z" fill="white"/>
<path d="M9.04006 5.886L8.78006 6.168L8.87846 5.7096L8.61926 5.418H8.94006L9.04006 4.968L9.14006 5.418H9.46086L9.20166 5.7096L9.30006 6.168L9.04006 5.886Z" fill="white"/>
<path d="M10.8001 5.886L10.5401 6.168L10.6385 5.7096L10.3793 5.418H10.7001L10.8001 4.968L10.9001 5.418H11.2209L10.9617 5.7096L11.0601 6.168L10.8001 5.886Z" fill="white"/>
<path d="M2.88003 7.3356L2.62003 7.6176L2.71843 7.1592L2.45923 6.8688H2.78003L2.88003 6.4176L2.98003 6.8688H3.30083L3.04163 7.1592L3.14003 7.6176L2.88003 7.3356Z" fill="white"/>
<path d="M4.64004 7.3356L4.38004 7.6176L4.47844 7.1592L4.21924 6.8688H4.54004L4.64004 6.4176L4.74004 6.8688H5.06084L4.80164 7.1592L4.90004 7.6176L4.64004 7.3356Z" fill="white"/>
<path d="M6.40005 7.3356L6.14005 7.6176L6.23845 7.1592L5.97925 6.8688H6.30005L6.40005 6.4176L6.50005 6.8688H6.82085L6.56165 7.1592L6.66005 7.6176L6.40005 7.3356Z" fill="white"/>
<path d="M8.16006 7.3356L7.90006 7.6176L7.99846 7.1592L7.73926 6.8688H8.06006L8.16006 6.4176L8.26006 6.8688H8.58086L8.32166 7.1592L8.42006 7.6176L8.16006 7.3356Z" fill="white"/>
<path d="M9.92007 7.3356L9.66007 7.6176L9.75847 7.1592L9.49927 6.8688H9.82007L9.92007 6.4176L10.0201 6.8688H10.3409L10.0817 7.1592L10.1801 7.6176L9.92007 7.3356Z" fill="white"/>
<path d="M2.00002 8.7864L1.74002 9.0672L1.83842 8.61L1.57922 8.3184H1.90002L2.00002 7.8672L2.10002 8.3184H2.42082L2.16162 8.61L2.26002 9.0672L2.00002 8.7864Z" fill="white"/>
<path d="M3.76003 8.7864L3.50003 9.0672L3.59843 8.61L3.33923 8.3184H3.66003L3.76003 7.8672L3.86003 8.3184H4.18083L3.92163 8.61L4.02003 9.0672L3.76003 8.7864Z" fill="white"/>
<path d="M5.52004 8.7864L5.26004 9.0672L5.35844 8.61L5.09924 8.3184H5.42004L5.52004 7.8672L5.62004 8.3184H5.94084L5.68164 8.61L5.78004 9.0672L5.52004 8.7864Z" fill="white"/>
<path d="M7.28005 8.7864L7.02005 9.0672L7.11845 8.61L6.85925 8.3184H7.18005L7.28005 7.8672L7.38005 8.3184H7.70085L7.44165 8.61L7.54005 9.0672L7.28005 8.7864Z" fill="white"/>
<path d="M9.04006 8.7864L8.78006 9.0672L8.87846 8.61L8.61926 8.3184H8.94006L9.04006 7.8672L9.14006 8.3184H9.46086L9.20166 8.61L9.30006 9.0672L9.04006 8.7864Z" fill="white"/>
<path d="M10.8001 8.7864L10.5401 9.0672L10.6385 8.61L10.3793 8.3184H10.7001L10.8001 7.8672L10.9001 8.3184H11.2209L10.9617 8.61L11.0601 9.0672L10.8001 8.7864Z" fill="white"/>
<path d="M2.00002 11.6856L1.74002 11.9676L1.83842 11.5092L1.57922 11.2188H1.90002L2.00002 10.7676L2.10002 11.2188H2.42082L2.16162 11.5092L2.26002 11.9676L2.00002 11.6856Z" fill="white"/>
<path d="M3.76003 11.6856L3.50003 11.9676L3.59843 11.5092L3.33923 11.2188H3.66003L3.76003 10.7676L3.86003 11.2188H4.18083L3.92163 11.5092L4.02003 11.9676L3.76003 11.6856Z" fill="white"/>
<path d="M5.52004 11.6856L5.26004 11.9676L5.35844 11.5092L5.09924 11.2188H5.42004L5.52004 10.7676L5.62004 11.2188H5.94084L5.68164 11.5092L5.78004 11.9676L5.52004 11.6856Z" fill="white"/>
<path d="M7.28005 11.6856L7.02005 11.9676L7.11845 11.5092L6.85925 11.2188H7.18005L7.28005 10.7676L7.38005 11.2188H7.70085L7.44165 11.5092L7.54005 11.9676L7.28005 11.6856Z" fill="white"/>
<path d="M9.04006 11.6856L8.78006 11.9676L8.87846 11.5092L8.61926 11.2188H8.94006L9.04006 10.7676L9.14006 11.2188H9.46086L9.20166 11.5092L9.30006 11.9676L9.04006 11.6856Z" fill="white"/>
<path d="M10.8001 11.6856L10.5401 11.9676L10.6385 11.5092L10.3793 11.2188H10.7001L10.8001 10.7676L10.9001 11.2188H11.2209L10.9617 11.5092L11.0601 11.9676L10.8001 11.6856Z" fill="white"/>
<path d="M2.88003 10.236L2.62003 10.518L2.71843 10.0596L2.45923 9.768H2.78003L2.88003 9.318L2.98003 9.768H3.30083L3.04163 10.0596L3.14003 10.518L2.88003 10.236Z" fill="white"/>
<path d="M4.64004 10.236L4.38004 10.518L4.47844 10.0596L4.21924 9.768H4.54004L4.64004 9.318L4.74004 9.768H5.06084L4.80164 10.0596L4.90004 10.518L4.64004 10.236Z" fill="white"/>
<path d="M6.40005 10.236L6.14005 10.518L6.23845 10.0596L5.97925 9.768H6.30005L6.40005 9.318L6.50005 9.768H6.82085L6.56165 10.0596L6.66005 10.518L6.40005 10.236Z" fill="white"/>
<path d="M8.16006 10.236L7.90006 10.518L7.99846 10.0596L7.73926 9.768H8.06006L8.16006 9.318L8.26006 9.768H8.58086L8.32166 10.0596L8.42006 10.518L8.16006 10.236Z" fill="white"/>
<path d="M9.92007 10.236L9.66007 10.518L9.75847 10.0596L9.49927 9.768H9.82007L9.92007 9.318L10.0201 9.768H10.3409L10.0817 10.0596L10.1801 10.518L9.92007 10.236Z" fill="white"/>
<path d="M23.2 21.144H0.800049V22.8H23.2V21.144Z" fill="#B22234"/>
</g>
<defs>
<clipPath id="clip0_186_2095">
<rect width="24" height="24" fill="white"/>
</clipPath>
</defs>
</svg>
